<?xml version="1.0" encoding="UTF-8" standalone="no"?>
<!DOCTYPE svg PUBLIC "-//W3C//DTD SVG 1.1//EN" "http://www.w3.org/Graphics/SVG/1.1/DTD/svg11.dtd">
<svg xmlns="http://www.w3.org/2000/svg" version="1.1" viewBox="0.00 0.00 3326.00 630.00">
<g stroke-width="2.00" fill="none" stroke-linecap="butt">
<path stroke="#808080" vector-effect="non-scaling-stroke" d="
  M 2484.99 310.99
  Q 2485.50 310.99 2485.50 311.50
  L 2485.50 391.48
  Q 2485.50 391.94 2485.15 392.24
  Q 2468.53 406.14 2447.92 410.66
  Q 2421.25 416.51 2393.01 413.72
  C 2344.19 408.89 2315.18 374.11 2305.05 328.48
  C 2297.81 295.89 2298.09 262.80 2298.66 229.44
  C 2299.49 181.44 2310.13 117.44 2361.53 96.67
  C 2381.07 88.78 2403.14 88.26 2423.99 92.22
  C 2463.35 99.69 2482.30 128.81 2487.78 166.36
  Q 2487.87 166.99 2488.51 166.99
  L 2581.25 167.01
  Q 2581.65 167.01 2581.59 166.62
  C 2575.40 119.61 2558.08 73.44 2517.28 44.98
  Q 2487.70 24.35 2451.75 17.49
  C 2415.12 10.51 2375.88 9.81 2339.70 19.20
  C 2243.17 44.26 2203.16 134.98 2201.02 226.50
  Q 2200.32 256.05 2201.20 283.18
  C 2203.04 339.96 2221.32 398.24 2262.64 439.46
  C 2294.81 471.56 2340.51 488.44 2384.75 491.23
  Q 2439.86 494.70 2493.43 479.46
  C 2527.09 469.89 2558.13 453.35 2581.43 426.84
  Q 2581.75 426.48 2581.75 426.00
  L 2581.75 240.75
  Q 2581.75 240.25 2581.25 240.25
  L 2398.50 240.25
  A 0.50 0.50 0.0 0 0 2398.00 240.75
  L 2398.00 310.51
  Q 2398.00 311.02 2398.51 311.02
  L 2484.99 310.99"
/>
<path stroke="#808080" vector-effect="non-scaling-stroke" d="
  M 124.86 320.92
  Q 185.97 321.19 207.94 320.91
  Q 228.62 320.65 246.18 318.63
  C 311.20 311.15 371.12 272.93 382.86 204.41
  C 396.29 126.02 359.69 55.41 282.81 29.94
  Q 253.68 20.29 228.00 19.28
  Q 211.11 18.62 194.18 18.58
  Q 111.38 18.39 28.47 18.54
  Q 28.00 18.54 28.00 19.02
  L 28.00 485.00
  A 0.50 0.50 0.0 0 0 28.50 485.50
  L 123.75 485.50
  Q 124.25 485.50 124.25 485.00
  L 124.25 321.53
  Q 124.25 320.92 124.86 320.92"
/>
<path stroke="#808080" vector-effect="non-scaling-stroke" d="
  M 1268.01 244.41
  A 0.35 0.35 0.0 0 0 1268.01 244.69
  L 1381.26 500.79
  A 0.35 0.35 0.0 0 0 1381.58 501.00
  L 1552.47 501.00
  A 0.35 0.35 0.0 0 0 1552.79 500.51
  L 1354.09 51.29
  A 0.35 0.35 0.0 0 0 1353.45 51.29
  L 1268.01 244.41"
/>
<path stroke="#808080" vector-effect="non-scaling-stroke" d="
  M 2001.96 138.50
  L 1952.03 138.50
  Q 1951.75 138.50 1951.75 138.78
  L 1951.75 206.00
  Q 1951.75 206.50 1952.25 206.50
  L 2001.98 206.50
  Q 2002.45 206.50 2002.45 206.97
  Q 2002.05 298.64 2002.51 390.31
  Q 2002.59 407.60 2005.49 422.49
  C 2020.00 497.01 2098.92 500.55 2157.55 483.57
  Q 2158.00 483.45 2158.00 482.98
  L 2158.01 413.99
  Q 2158.01 413.49 2157.51 413.56
  Q 2140.75 416.06 2123.82 415.23
  C 2099.37 414.04 2094.92 398.46 2094.94 377.50
  Q 2094.99 292.16 2095.01 207.48
  Q 2095.01 206.50 2096.00 206.50
  L 2153.75 206.50
  Q 2154.26 206.50 2154.26 206.00
  L 2154.26 139.00
  Q 2154.26 138.50 2153.75 138.50
  L 2095.50 138.50
  Q 2095.01 138.50 2095.01 138.00
  L 2095.00 54.25
  Q 2095.00 53.00 2093.75 53.00
  L 2002.83 53.00
  A 0.43 0.42 -90.0 0 0 2002.41 53.43
  C 2003.02 80.41 2002.00 102.46 2002.56 137.88
  Q 2002.57 138.50 2001.96 138.50"
/>
<path stroke="#808080" vector-effect="non-scaling-stroke" d="
  M 535.66 179.27
  L 533.34 138.82
  A 0.34 0.34 0.0 0 0 533.00 138.50
  L 446.25 138.50
  Q 445.75 138.50 445.75 139.00
  L 445.75 485.00
  A 0.50 0.50 0.0 0 0 446.25 485.50
  L 538.02 485.50
  A 0.48 0.48 0.0 0 0 538.50 485.02
  Q 538.50 372.74 538.50 260.54
  Q 538.50 258.16 539.54 256.19
  C 558.82 219.71 605.16 219.94 640.01 225.56
  A 0.57 0.56 5.3 0 0 640.67 225.02
  L 642.08 136.95
  Q 642.09 136.36 641.52 136.19
  Q 623.37 131.00 604.49 132.74
  C 573.27 135.61 552.34 153.29 536.25 179.42
  Q 535.72 180.27 535.66 179.27"
/>
<path stroke="#808080" vector-effect="non-scaling-stroke" d="
  M 664.64 260.07
  C 657.04 296.08 657.73 338.38 666.81 374.05
  C 681.25 430.81 723.87 475.21 781.80 487.47
  C 836.94 499.14 899.44 488.94 939.98 447.34
  Q 972.30 414.17 982.21 369.49
  Q 994.37 314.72 982.31 257.34
  C 970.23 199.82 930.04 153.62 872.53 138.57
  C 840.31 130.14 806.57 129.85 774.38 138.50
  C 715.10 154.44 677.06 201.17 664.64 260.07"
/>
<path stroke="#808080" vector-effect="non-scaling-stroke" d="
  M 1703.17 172.21
  L 1700.16 138.94
  Q 1700.12 138.50 1699.68 138.50
  L 1614.50 138.50
  A 0.50 0.50 0.0 0 0 1614.00 139.00
  L 1614.00 618.00
  Q 1614.00 618.99 1615.00 618.99
  L 1706.27 619.02
  Q 1706.70 619.02 1706.72 618.59
  C 1707.25 609.71 1706.77 598.45 1706.76 592.06
  Q 1706.63 529.35 1706.83 512.06
  C 1707.07 490.72 1706.51 473.42 1707.12 455.96
  Q 1707.15 455.29 1707.60 455.79
  C 1736.47 488.17 1779.83 497.71 1821.26 488.85
  C 1870.26 478.38 1902.54 437.40 1916.16 390.98
  Q 1920.51 376.15 1921.29 372.00
  C 1936.24 292.19 1925.78 160.76 1826.08 136.37
  C 1780.48 125.21 1734.69 135.28 1703.86 172.42
  Q 1703.26 173.15 1703.17 172.21"
/>
<path stroke="#808080" vector-effect="non-scaling-stroke" d="
  M 2734.99 342.37
  A 0.10 0.10 0.0 0 1 2735.09 342.25
  L 2955.71 342.25
  Q 2956.10 342.25 2956.11 341.86
  C 2956.94 290.70 2957.00 238.29 2928.50 194.76
  C 2897.14 146.87 2845.79 128.85 2789.45 132.70
  C 2701.28 138.73 2647.62 207.83 2642.09 292.27
  C 2640.25 320.27 2640.96 348.80 2648.48 376.01
  C 2665.25 436.75 2716.10 479.14 2777.74 489.08
  C 2840.18 499.15 2909.13 483.07 2948.44 429.77
  A 0.36 0.36 0.0 0 0 2948.42 429.32
  L 2903.41 378.82
  A 0.62 0.61 -47.7 0 0 2902.46 378.87
  C 2886.39 400.89 2859.75 413.94 2833.03 416.73
  C 2788.26 421.40 2747.68 399.45 2737.35 353.23
  Q 2736.14 347.84 2734.99 342.37"
/>
<path stroke="#808080" vector-effect="non-scaling-stroke" d="
  M 3097.00 178.50
  L 3094.22 138.97
  Q 3094.18 138.50 3093.71 138.50
  L 3007.50 138.50
  Q 3006.99 138.50 3006.99 139.01
  L 3007.00 484.88
  Q 3007.00 485.50 3007.63 485.50
  L 3099.00 485.50
  Q 3099.50 485.50 3099.50 485.00
  L 3099.50 241.26
  Q 3099.50 240.77 3099.76 240.35
  C 3109.41 224.95 3122.77 213.56 3140.60 209.47
  C 3158.38 205.40 3184.92 206.63 3199.15 219.36
  C 3211.48 230.40 3213.76 249.89 3213.76 265.25
  Q 3213.73 375.11 3213.76 485.00
  Q 3213.76 485.50 3214.26 485.50
  L 3305.98 485.50
  Q 3306.49 485.50 3306.49 484.99
  Q 3306.56 375.65 3306.38 266.31
  C 3306.30 218.30 3296.94 163.25 3247.63 141.57
  C 3223.87 131.12 3193.83 129.99 3168.67 134.94
  Q 3124.93 143.53 3097.33 178.60
  Q 3097.04 178.98 3097.00 178.50"
/>
<path stroke="#808080" vector-effect="non-scaling-stroke" d="
  M 1035.63 499.70
  A 3.24 3.24 0.0 0 0 1038.60 504.25
  L 1325.88 504.25
  A 3.24 3.24 0.0 0 0 1328.85 499.70
  L 1185.20 175.10
  A 3.24 3.24 0.0 0 0 1179.28 175.10
  L 1035.63 499.70"
/>
<path stroke="#808080" vector-effect="non-scaling-stroke" d="
  M 285.33 197.30
  C 291.50 175.05 288.92 148.16 276.37 128.78
  C 261.81 106.30 237.88 96.48 211.75 96.47
  Q 168.14 96.46 124.73 96.53
  A 0.48 0.48 0.0 0 0 124.25 97.01
  L 124.25 242.45
  A 0.78 0.78 0.0 0 0 125.03 243.23
  Q 166.13 242.93 207.18 242.96
  Q 220.80 242.97 227.14 242.15
  C 254.11 238.66 277.64 225.03 285.33 197.30"
/>
<path stroke="#808080" vector-effect="non-scaling-stroke" d="
  M 752.77 296.40
  C 751.10 325.38 751.99 360.20 767.38 386.07
  C 781.97 410.58 807.71 420.36 835.30 416.28
  C 868.33 411.41 886.21 384.43 891.70 353.69
  Q 898.47 315.85 893.01 276.50
  C 888.62 244.88 868.86 212.27 834.25 207.98
  C 815.01 205.59 796.16 209.07 781.44 221.85
  C 760.56 239.96 754.28 270.31 752.77 296.40"
/>
<path stroke="#808080" vector-effect="non-scaling-stroke" d="
  M 1707.02 243.05
  C 1706.89 288.36 1706.62 333.67 1706.93 379.00
  C 1706.94 380.75 1706.62 382.03 1707.42 383.62
  C 1716.53 401.83 1731.75 412.25 1751.44 415.75
  C 1819.77 427.86 1832.76 365.05 1833.83 314.52
  C 1834.78 269.64 1824.74 207.16 1765.80 207.50
  C 1741.38 207.64 1720.16 216.57 1708.09 238.75
  Q 1707.03 240.70 1707.02 243.05"
/>
<path stroke="#808080" vector-effect="non-scaling-stroke" d="
  M 2736.50 279.12
  L 2864.50 279.15
  Q 2864.85 279.15 2864.86 278.76
  C 2865.91 251.22 2857.88 223.67 2830.99 212.36
  C 2818.66 207.18 2802.13 205.96 2788.99 208.48
  C 2754.97 215.03 2740.45 247.99 2736.14 278.71
  Q 2736.09 279.12 2736.50 279.12"
/>
</g>
<path fill="#ffffff" d="
  M 0.00 0.00
  L 3326.00 0.00
  L 3326.00 630.00
  L 0.00 630.00
  L 0.00 0.00
  Z
  M 2484.99 310.99
  Q 2485.50 310.99 2485.50 311.50
  L 2485.50 391.48
  Q 2485.50 391.94 2485.15 392.24
  Q 2468.53 406.14 2447.92 410.66
  Q 2421.25 416.51 2393.01 413.72
  C 2344.19 408.89 2315.18 374.11 2305.05 328.48
  C 2297.81 295.89 2298.09 262.80 2298.66 229.44
  C 2299.49 181.44 2310.13 117.44 2361.53 96.67
  C 2381.07 88.78 2403.14 88.26 2423.99 92.22
  C 2463.35 99.69 2482.30 128.81 2487.78 166.36
  Q 2487.87 166.99 2488.51 166.99
  L 2581.25 167.01
  Q 2581.65 167.01 2581.59 166.62
  C 2575.40 119.61 2558.08 73.44 2517.28 44.98
  Q 2487.70 24.35 2451.75 17.49
  C 2415.12 10.51 2375.88 9.81 2339.70 19.20
  C 2243.17 44.26 2203.16 134.98 2201.02 226.50
  Q 2200.32 256.05 2201.20 283.18
  C 2203.04 339.96 2221.32 398.24 2262.64 439.46
  C 2294.81 471.56 2340.51 488.44 2384.75 491.23
  Q 2439.86 494.70 2493.43 479.46
  C 2527.09 469.89 2558.13 453.35 2581.43 426.84
  Q 2581.75 426.48 2581.75 426.00
  L 2581.75 240.75
  Q 2581.75 240.25 2581.25 240.25
  L 2398.50 240.25
  A 0.50 0.50 0.0 0 0 2398.00 240.75
  L 2398.00 310.51
  Q 2398.00 311.02 2398.51 311.02
  L 2484.99 310.99
  Z
  M 124.86 320.92
  Q 185.97 321.19 207.94 320.91
  Q 228.62 320.65 246.18 318.63
  C 311.20 311.15 371.12 272.93 382.86 204.41
  C 396.29 126.02 359.69 55.41 282.81 29.94
  Q 253.68 20.29 228.00 19.28
  Q 211.11 18.62 194.18 18.58
  Q 111.38 18.39 28.47 18.54
  Q 28.00 18.54 28.00 19.02
  L 28.00 485.00
  A 0.50 0.50 0.0 0 0 28.50 485.50
  L 123.75 485.50
  Q 124.25 485.50 124.25 485.00
  L 124.25 321.53
  Q 124.25 320.92 124.86 320.92
  Z
  M 1268.01 244.41
  A 0.35 0.35 0.0 0 0 1268.01 244.69
  L 1381.26 500.79
  A 0.35 0.35 0.0 0 0 1381.58 501.00
  L 1552.47 501.00
  A 0.35 0.35 0.0 0 0 1552.79 500.51
  L 1354.09 51.29
  A 0.35 0.35 0.0 0 0 1353.45 51.29
  L 1268.01 244.41
  Z
  M 2001.96 138.50
  L 1952.03 138.50
  Q 1951.75 138.50 1951.75 138.78
  L 1951.75 206.00
  Q 1951.75 206.50 1952.25 206.50
  L 2001.98 206.50
  Q 2002.45 206.50 2002.45 206.97
  Q 2002.05 298.64 2002.51 390.31
  Q 2002.59 407.60 2005.49 422.49
  C 2020.00 497.01 2098.92 500.55 2157.55 483.57
  Q 2158.00 483.45 2158.00 482.98
  L 2158.01 413.99
  Q 2158.01 413.49 2157.51 413.56
  Q 2140.75 416.06 2123.82 415.23
  C 2099.37 414.04 2094.92 398.46 2094.94 377.50
  Q 2094.99 292.16 2095.01 207.48
  Q 2095.01 206.50 2096.00 206.50
  L 2153.75 206.50
  Q 2154.26 206.50 2154.26 206.00
  L 2154.26 139.00
  Q 2154.26 138.50 2153.75 138.50
  L 2095.50 138.50
  Q 2095.01 138.50 2095.01 138.00
  L 2095.00 54.25
  Q 2095.00 53.00 2093.75 53.00
  L 2002.83 53.00
  A 0.43 0.42 -90.0 0 0 2002.41 53.43
  C 2003.02 80.41 2002.00 102.46 2002.56 137.88
  Q 2002.57 138.50 2001.96 138.50
  Z
  M 535.66 179.27
  L 533.34 138.82
  A 0.34 0.34 0.0 0 0 533.00 138.50
  L 446.25 138.50
  Q 445.75 138.50 445.75 139.00
  L 445.75 485.00
  A 0.50 0.50 0.0 0 0 446.25 485.50
  L 538.02 485.50
  A 0.48 0.48 0.0 0 0 538.50 485.02
  Q 538.50 372.74 538.50 260.54
  Q 538.50 258.16 539.54 256.19
  C 558.82 219.71 605.16 219.94 640.01 225.56
  A 0.57 0.56 5.3 0 0 640.67 225.02
  L 642.08 136.95
  Q 642.09 136.36 641.52 136.19
  Q 623.37 131.00 604.49 132.74
  C 573.27 135.61 552.34 153.29 536.25 179.42
  Q 535.72 180.27 535.66 179.27
  Z
  M 664.64 260.07
  C 657.04 296.08 657.73 338.38 666.81 374.05
  C 681.25 430.81 723.87 475.21 781.80 487.47
  C 836.94 499.14 899.44 488.94 939.98 447.34
  Q 972.30 414.17 982.21 369.49
  Q 994.37 314.72 982.31 257.34
  C 970.23 199.82 930.04 153.62 872.53 138.57
  C 840.31 130.14 806.57 129.85 774.38 138.50
  C 715.10 154.44 677.06 201.17 664.64 260.07
  Z
  M 1703.17 172.21
  L 1700.16 138.94
  Q 1700.12 138.50 1699.68 138.50
  L 1614.50 138.50
  A 0.50 0.50 0.0 0 0 1614.00 139.00
  L 1614.00 618.00
  Q 1614.00 618.99 1615.00 618.99
  L 1706.27 619.02
  Q 1706.70 619.02 1706.72 618.59
  C 1707.25 609.71 1706.77 598.45 1706.76 592.06
  Q 1706.63 529.35 1706.83 512.06
  C 1707.07 490.72 1706.51 473.42 1707.12 455.96
  Q 1707.15 455.29 1707.60 455.79
  C 1736.47 488.17 1779.83 497.71 1821.26 488.85
  C 1870.26 478.38 1902.54 437.40 1916.16 390.98
  Q 1920.51 376.15 1921.29 372.00
  C 1936.24 292.19 1925.78 160.76 1826.08 136.37
  C 1780.48 125.21 1734.69 135.28 1703.86 172.42
  Q 1703.26 173.15 1703.17 172.21
  Z
  M 2734.99 342.37
  A 0.10 0.10 0.0 0 1 2735.09 342.25
  L 2955.71 342.25
  Q 2956.10 342.25 2956.11 341.86
  C 2956.94 290.70 2957.00 238.29 2928.50 194.76
  C 2897.14 146.87 2845.79 128.85 2789.45 132.70
  C 2701.28 138.73 2647.62 207.83 2642.09 292.27
  C 2640.25 320.27 2640.96 348.80 2648.48 376.01
  C 2665.25 436.75 2716.10 479.14 2777.74 489.08
  C 2840.18 499.15 2909.13 483.07 2948.44 429.77
  A 0.36 0.36 0.0 0 0 2948.42 429.32
  L 2903.41 378.82
  A 0.62 0.61 -47.7 0 0 2902.46 378.87
  C 2886.39 400.89 2859.75 413.94 2833.03 416.73
  C 2788.26 421.40 2747.68 399.45 2737.35 353.23
  Q 2736.14 347.84 2734.99 342.37
  Z
  M 3097.00 178.50
  L 3094.22 138.97
  Q 3094.18 138.50 3093.71 138.50
  L 3007.50 138.50
  Q 3006.99 138.50 3006.99 139.01
  L 3007.00 484.88
  Q 3007.00 485.50 3007.63 485.50
  L 3099.00 485.50
  Q 3099.50 485.50 3099.50 485.00
  L 3099.50 241.26
  Q 3099.50 240.77 3099.76 240.35
  C 3109.41 224.95 3122.77 213.56 3140.60 209.47
  C 3158.38 205.40 3184.92 206.63 3199.15 219.36
  C 3211.48 230.40 3213.76 249.89 3213.76 265.25
  Q 3213.73 375.11 3213.76 485.00
  Q 3213.76 485.50 3214.26 485.50
  L 3305.98 485.50
  Q 3306.49 485.50 3306.49 484.99
  Q 3306.56 375.65 3306.38 266.31
  C 3306.30 218.30 3296.94 163.25 3247.63 141.57
  C 3223.87 131.12 3193.83 129.99 3168.67 134.94
  Q 3124.93 143.53 3097.33 178.60
  Q 3097.04 178.98 3097.00 178.50
  Z
  M 1035.63 499.70
  A 3.24 3.24 0.0 0 0 1038.60 504.25
  L 1325.88 504.25
  A 3.24 3.24 0.0 0 0 1328.85 499.70
  L 1185.20 175.10
  A 3.24 3.24 0.0 0 0 1179.28 175.10
  L 1035.63 499.70
  Z"
/>
<path fill="#000000" d="
  M 2484.99 310.99
  L 2398.51 311.02
  Q 2398.00 311.02 2398.00 310.51
  L 2398.00 240.75
  A 0.50 0.50 0.0 0 1 2398.50 240.25
  L 2581.25 240.25
  Q 2581.75 240.25 2581.75 240.75
  L 2581.75 426.00
  Q 2581.75 426.48 2581.43 426.84
  C 2558.13 453.35 2527.09 469.89 2493.43 479.46
  Q 2439.86 494.70 2384.75 491.23
  C 2340.51 488.44 2294.81 471.56 2262.64 439.46
  C 2221.32 398.24 2203.04 339.96 2201.20 283.18
  Q 2200.32 256.05 2201.02 226.50
  C 2203.16 134.98 2243.17 44.26 2339.70 19.20
  C 2375.88 9.81 2415.12 10.51 2451.75 17.49
  Q 2487.70 24.35 2517.28 44.98
  C 2558.08 73.44 2575.40 119.61 2581.59 166.62
  Q 2581.65 167.01 2581.25 167.01
  L 2488.51 166.99
  Q 2487.87 166.99 2487.78 166.36
  C 2482.30 128.81 2463.35 99.69 2423.99 92.22
  C 2403.14 88.26 2381.07 88.78 2361.53 96.67
  C 2310.13 117.44 2299.49 181.44 2298.66 229.44
  C 2298.09 262.80 2297.81 295.89 2305.05 328.48
  C 2315.18 374.11 2344.19 408.89 2393.01 413.72
  Q 2421.25 416.51 2447.92 410.66
  Q 2468.53 406.14 2485.15 392.24
  Q 2485.50 391.94 2485.50 391.48
  L 2485.50 311.50
  Q 2485.50 310.99 2484.99 310.99
  Z"
/>
<path fill="#000000" d="
  M 124.25 321.53
  L 124.25 485.00
  Q 124.25 485.50 123.75 485.50
  L 28.50 485.50
  A 0.50 0.50 0.0 0 1 28.00 485.00
  L 28.00 19.02
  Q 28.00 18.54 28.47 18.54
  Q 111.38 18.39 194.18 18.58
  Q 211.11 18.62 228.00 19.28
  Q 253.68 20.29 282.81 29.94
  C 359.69 55.41 396.29 126.02 382.86 204.41
  C 371.12 272.93 311.20 311.15 246.18 318.63
  Q 228.62 320.65 207.94 320.91
  Q 185.97 321.19 124.86 320.92
  Q 124.25 320.92 124.25 321.53
  Z
  M 285.33 197.30
  C 291.50 175.05 288.92 148.16 276.37 128.78
  C 261.81 106.30 237.88 96.48 211.75 96.47
  Q 168.14 96.46 124.73 96.53
  A 0.48 0.48 0.0 0 0 124.25 97.01
  L 124.25 242.45
  A 0.78 0.78 0.0 0 0 125.03 243.23
  Q 166.13 242.93 207.18 242.96
  Q 220.80 242.97 227.14 242.15
  C 254.11 238.66 277.64 225.03 285.33 197.30
  Z"
/>
<path fill="#000000" d="
  M 1268.01 244.41
  L 1353.45 51.29
  A 0.35 0.35 0.0 0 1 1354.09 51.29
  L 1552.79 500.51
  A 0.35 0.35 0.0 0 1 1552.47 501.00
  L 1381.58 501.00
  A 0.35 0.35 0.0 0 1 1381.26 500.79
  L 1268.01 244.69
  A 0.35 0.35 0.0 0 1 1268.01 244.41
  Z"
/>
<path fill="#000000" d="
  M 2002.56 137.88
  C 2002.00 102.46 2003.02 80.41 2002.41 53.43
  A 0.43 0.42 -90.0 0 1 2002.83 53.00
  L 2093.75 53.00
  Q 2095.00 53.00 2095.00 54.25
  L 2095.01 138.00
  Q 2095.01 138.50 2095.50 138.50
  L 2153.75 138.50
  Q 2154.26 138.50 2154.26 139.00
  L 2154.26 206.00
  Q 2154.26 206.50 2153.75 206.50
  L 2096.00 206.50
  Q 2095.01 206.50 2095.01 207.48
  Q 2094.99 292.16 2094.94 377.50
  C 2094.92 398.46 2099.37 414.04 2123.82 415.23
  Q 2140.75 416.06 2157.51 413.56
  Q 2158.01 413.49 2158.01 413.99
  L 2158.00 482.98
  Q 2158.00 483.45 2157.55 483.57
  C 2098.92 500.55 2020.00 497.01 2005.49 422.49
  Q 2002.59 407.60 2002.51 390.31
  Q 2002.05 298.64 2002.45 206.97
  Q 2002.45 206.50 2001.98 206.50
  L 1952.25 206.50
  Q 1951.75 206.50 1951.75 206.00
  L 1951.75 138.78
  Q 1951.75 138.50 1952.03 138.50
  L 2001.96 138.50
  Q 2002.57 138.50 2002.56 137.88
  Z"
/>
<path fill="#ffffff" d="
  M 276.37 128.78
  C 288.92 148.16 291.50 175.05 285.33 197.30
  C 277.64 225.03 254.11 238.66 227.14 242.15
  Q 220.80 242.97 207.18 242.96
  Q 166.13 242.93 125.03 243.23
  A 0.78 0.78 0.0 0 1 124.25 242.45
  L 124.25 97.01
  A 0.48 0.48 0.0 0 1 124.73 96.53
  Q 168.14 96.46 211.75 96.47
  C 237.88 96.48 261.81 106.30 276.37 128.78
  Z"
/>
<path fill="#000000" d="
  M 536.25 179.42
  C 552.34 153.29 573.27 135.61 604.49 132.74
  Q 623.37 131.00 641.52 136.19
  Q 642.09 136.36 642.08 136.95
  L 640.67 225.02
  A 0.57 0.56 5.3 0 1 640.01 225.56
  C 605.16 219.94 558.82 219.71 539.54 256.19
  Q 538.50 258.16 538.50 260.54
  Q 538.50 372.74 538.50 485.02
  A 0.48 0.48 0.0 0 1 538.02 485.50
  L 446.25 485.50
  A 0.50 0.50 0.0 0 1 445.75 485.00
  L 445.75 139.00
  Q 445.75 138.50 446.25 138.50
  L 533.00 138.50
  A 0.34 0.34 0.0 0 1 533.34 138.82
  L 535.66 179.27
  Q 535.72 180.27 536.25 179.42
  Z"
/>
<path fill="#000000" d="
  M 666.81 374.05
  C 657.73 338.38 657.04 296.08 664.64 260.07
  C 677.06 201.17 715.10 154.44 774.38 138.50
  C 806.57 129.85 840.31 130.14 872.53 138.57
  C 930.04 153.62 970.23 199.82 982.31 257.34
  Q 994.37 314.72 982.21 369.49
  Q 972.30 414.17 939.98 447.34
  C 899.44 488.94 836.94 499.14 781.80 487.47
  C 723.87 475.21 681.25 430.81 666.81 374.05
  Z
  M 752.77 296.40
  C 751.10 325.38 751.99 360.20 767.38 386.07
  C 781.97 410.58 807.71 420.36 835.30 416.28
  C 868.33 411.41 886.21 384.43 891.70 353.69
  Q 898.47 315.85 893.01 276.50
  C 888.62 244.88 868.86 212.27 834.25 207.98
  C 815.01 205.59 796.16 209.07 781.44 221.85
  C 760.56 239.96 754.28 270.31 752.77 296.40
  Z"
/>
<path fill="#000000" d="
  M 1703.86 172.42
  C 1734.69 135.28 1780.48 125.21 1826.08 136.37
  C 1925.78 160.76 1936.24 292.19 1921.29 372.00
  Q 1920.51 376.15 1916.16 390.98
  C 1902.54 437.40 1870.26 478.38 1821.26 488.85
  C 1779.83 497.71 1736.47 488.17 1707.60 455.79
  Q 1707.15 455.29 1707.12 455.96
  C 1706.51 473.42 1707.07 490.72 1706.83 512.06
  Q 1706.63 529.35 1706.76 592.06
  C 1706.77 598.45 1707.25 609.71 1706.72 618.59
  Q 1706.70 619.02 1706.27 619.02
  L 1615.00 618.99
  Q 1614.00 618.99 1614.00 618.00
  L 1614.00 139.00
  A 0.50 0.50 0.0 0 1 1614.50 138.50
  L 1699.68 138.50
  Q 1700.12 138.50 1700.16 138.94
  L 1703.17 172.21
  Q 1703.26 173.15 1703.86 172.42
  Z
  M 1707.02 243.05
  C 1706.89 288.36 1706.62 333.67 1706.93 379.00
  C 1706.94 380.75 1706.62 382.03 1707.42 383.62
  C 1716.53 401.83 1731.75 412.25 1751.44 415.75
  C 1819.77 427.86 1832.76 365.05 1833.83 314.52
  C 1834.78 269.64 1824.74 207.16 1765.80 207.50
  C 1741.38 207.64 1720.16 216.57 1708.09 238.75
  Q 1707.03 240.70 1707.02 243.05
  Z"
/>
<path fill="#000000" d="
  M 2734.99 342.37
  Q 2736.14 347.84 2737.35 353.23
  C 2747.68 399.45 2788.26 421.40 2833.03 416.73
  C 2859.75 413.94 2886.39 400.89 2902.46 378.87
  A 0.62 0.61 -47.7 0 1 2903.41 378.82
  L 2948.42 429.32
  A 0.36 0.36 0.0 0 1 2948.44 429.77
  C 2909.13 483.07 2840.18 499.15 2777.74 489.08
  C 2716.10 479.14 2665.25 436.75 2648.48 376.01
  C 2640.96 348.80 2640.25 320.27 2642.09 292.27
  C 2647.62 207.83 2701.28 138.73 2789.45 132.70
  C 2845.79 128.85 2897.14 146.87 2928.50 194.76
  C 2957.00 238.29 2956.94 290.70 2956.11 341.86
  Q 2956.10 342.25 2955.71 342.25
  L 2735.09 342.25
  A 0.10 0.10 0.0 0 0 2734.99 342.37
  Z
  M 2736.50 279.12
  L 2864.50 279.15
  Q 2864.85 279.15 2864.86 278.76
  C 2865.91 251.22 2857.88 223.67 2830.99 212.36
  C 2818.66 207.18 2802.13 205.96 2788.99 208.48
  C 2754.97 215.03 2740.45 247.99 2736.14 278.71
  Q 2736.09 279.12 2736.50 279.12
  Z"
/>
<path fill="#000000" d="
  M 3097.33 178.60
  Q 3124.93 143.53 3168.67 134.94
  C 3193.83 129.99 3223.87 131.12 3247.63 141.57
  C 3296.94 163.25 3306.30 218.30 3306.38 266.31
  Q 3306.56 375.65 3306.49 484.99
  Q 3306.49 485.50 3305.98 485.50
  L 3214.26 485.50
  Q 3213.76 485.50 3213.76 485.00
  Q 3213.73 375.11 3213.76 265.25
  C 3213.76 249.89 3211.48 230.40 3199.15 219.36
  C 3184.92 206.63 3158.38 205.40 3140.60 209.47
  C 3122.77 213.56 3109.41 224.95 3099.76 240.35
  Q 3099.50 240.77 3099.50 241.26
  L 3099.50 485.00
  Q 3099.50 485.50 3099.00 485.50
  L 3007.63 485.50
  Q 3007.00 485.50 3007.00 484.88
  L 3006.99 139.01
  Q 3006.99 138.50 3007.50 138.50
  L 3093.71 138.50
  Q 3094.18 138.50 3094.22 138.97
  L 3097.00 178.50
  Q 3097.04 178.98 3097.33 178.60
  Z"
/>
<path fill="#000000" d="
  M 1035.63 499.70
  L 1179.28 175.10
  A 3.24 3.24 0.0 0 1 1185.20 175.10
  L 1328.85 499.70
  A 3.24 3.24 0.0 0 1 1325.88 504.25
  L 1038.60 504.25
  A 3.24 3.24 0.0 0 1 1035.63 499.70
  Z"
/>
<path fill="#ffffff" d="
  M 752.77 296.40
  C 754.28 270.31 760.56 239.96 781.44 221.85
  C 796.16 209.07 815.01 205.59 834.25 207.98
  C 868.86 212.27 888.62 244.88 893.01 276.50
  Q 898.47 315.85 891.70 353.69
  C 886.21 384.43 868.33 411.41 835.30 416.28
  C 807.71 420.36 781.97 410.58 767.38 386.07
  C 751.99 360.20 751.10 325.38 752.77 296.40
  Z"
/>
<path fill="#ffffff" d="
  M 2864.50 279.15
  L 2736.50 279.12
  Q 2736.09 279.12 2736.14 278.71
  C 2740.45 247.99 2754.97 215.03 2788.99 208.48
  C 2802.13 205.96 2818.66 207.18 2830.99 212.36
  C 2857.88 223.67 2865.91 251.22 2864.86 278.76
  Q 2864.85 279.15 2864.50 279.15
  Z"
/>
<path fill="#ffffff" d="
  M 1706.93 379.00
  C 1706.62 333.67 1706.89 288.36 1707.02 243.05
  Q 1707.03 240.70 1708.09 238.75
  C 1720.16 216.57 1741.38 207.64 1765.80 207.50
  C 1824.74 207.16 1834.78 269.64 1833.83 314.52
  C 1832.76 365.05 1819.77 427.86 1751.44 415.75
  C 1731.75 412.25 1716.53 401.83 1707.42 383.62
  C 1706.62 382.03 1706.94 380.75 1706.93 379.00
  Z"
/>
</svg>
