<?xml version="1.0" encoding="UTF-8" standalone="no"?>
<!DOCTYPE svg PUBLIC "-//W3C//DTD SVG 1.1//EN" "http://www.w3.org/Graphics/SVG/1.1/DTD/svg11.dtd">
<svg xmlns="http://www.w3.org/2000/svg" version="1.1" viewBox="0.00 0.00 2764.00 450.00">
<g stroke-width="2.00" fill="none" stroke-linecap="butt">
<path stroke="#808080" vector-effect="non-scaling-stroke" d="
  M 2073.27 275.81
  C 2044.79 290.90 2003.79 293.85 1973.48 282.00
  C 1922.11 261.89 1901.09 206.74 1914.63 155.37
  C 1930.67 94.51 1994.95 70.85 2051.20 87.61
  C 2069.68 93.11 2086.25 104.61 2099.54 118.44
  Q 2099.88 118.79 2100.24 118.46
  L 2147.68 74.72
  Q 2147.91 74.50 2147.70 74.26
  C 2111.04 32.25 2056.96 16.77 2002.73 18.91
  C 1911.97 22.49 1838.31 85.37 1835.02 179.23
  C 1833.26 229.66 1851.63 275.18 1888.14 308.75
  C 1955.31 370.50 2070.76 363.95 2141.59 312.05
  Q 2142.00 311.75 2142.00 311.25
  L 2142.00 181.25
  Q 2142.00 180.75 2141.50 180.75
  L 2074.06 180.75
  Q 2073.75 180.75 2073.75 181.06
  L 2073.75 275.02
  Q 2073.75 275.56 2073.27 275.81"
/>
<path stroke="#808080" vector-effect="non-scaling-stroke" d="
  M 95.65 258.31
  Q 97.49 258.09 100.00 258.12
  Q 139.39 258.47 178.75 257.40
  C 183.15 257.28 188.02 256.27 192.61 255.83
  Q 197.72 255.35 201.73 254.27
  C 208.69 252.39 216.40 250.62 222.59 248.52
  C 254.54 237.67 280.41 215.64 292.43 183.86
  C 296.89 172.07 298.73 159.04 299.49 146.22
  Q 299.78 141.36 299.33 135.27
  C 298.53 124.35 297.73 113.50 293.93 103.10
  C 292.13 98.16 290.47 93.06 288.13 88.56
  C 268.03 49.84 229.43 30.51 187.31 26.03
  C 178.70 25.12 171.16 24.28 163.00 24.27
  Q 92.03 24.23 20.97 24.26
  A 1.72 1.72 0.0 0 0 19.25 25.98
  L 19.25 345.47
  A 2.03 2.03 0.0 0 0 21.28 347.50
  L 92.41 347.50
  A 1.84 1.84 0.0 0 0 94.25 345.66
  L 94.25 259.89
  A 1.59 1.59 0.0 0 1 95.65 258.31"
/>
<path stroke="#808080" vector-effect="non-scaling-stroke" d="
  M 1657.25 104.50
  L 1620.00 104.50
  Q 1619.50 104.50 1619.50 105.00
  L 1619.50 159.50
  A 0.50 0.50 0.0 0 0 1620.00 160.00
  L 1657.24 160.00
  Q 1657.75 160.00 1657.75 160.51
  Q 1657.74 209.25 1657.77 257.99
  C 1657.79 278.96 1660.51 300.65 1673.10 318.18
  C 1684.83 334.52 1702.99 344.48 1722.58 348.40
  C 1751.20 354.11 1783.85 351.80 1809.05 335.77
  A 0.43 0.42 64.5 0 0 1809.23 335.26
  L 1790.16 285.38
  A 0.51 0.50 -28.0 0 0 1789.40 285.15
  C 1771.66 297.33 1739.18 299.64 1731.59 273.58
  C 1729.95 267.95 1729.78 261.01 1729.78 254.75
  Q 1729.75 207.57 1729.75 160.48
  A 0.48 0.48 0.0 0 1 1730.23 160.00
  L 1791.25 160.00
  A 0.50 0.50 0.0 0 0 1791.75 159.50
  L 1791.75 105.00
  A 0.50 0.50 0.0 0 0 1791.25 104.50
  L 1730.75 104.50
  A 1.00 1.00 0.0 0 1 1729.75 103.50
  L 1729.75 44.60
  Q 1729.75 44.00 1729.16 44.00
  L 1658.25 44.00
  A 0.50 0.50 0.0 0 0 1657.75 44.50
  L 1657.75 104.00
  Q 1657.75 104.50 1657.25 104.50"
/>
<path stroke="#808080" vector-effect="non-scaling-stroke" d="
  M 416.74 130.88
  L 416.76 99.75
  A 0.76 0.75 0.0 0 0 416.00 99.00
  L 348.50 99.00
  Q 347.99 99.00 347.99 99.51
  L 348.00 346.97
  Q 348.00 347.50 348.53 347.50
  L 419.21 347.50
  Q 419.79 347.50 419.79 346.91
  Q 419.61 290.38 419.91 233.86
  C 420.03 211.65 422.95 190.06 441.45 175.22
  C 458.71 161.37 480.59 159.11 501.54 161.85
  A 0.54 0.54 0.0 0 0 502.15 161.31
  L 501.94 95.95
  Q 501.94 95.59 501.58 95.59
  C 468.96 94.93 437.58 105.12 417.09 131.01
  A 0.20 0.19 64.6 0 1 416.74 130.88"
/>
<path stroke="#808080" vector-effect="non-scaling-stroke" d="
  M 695.31 347.53
  C 740.62 338.30 777.91 305.74 791.78 261.74
  C 795.40 250.27 796.19 238.93 797.19 227.06
  C 797.66 221.55 796.87 216.32 796.47 210.81
  C 794.20 179.78 781.31 151.89 758.70 131.04
  C 720.30 95.65 663.67 87.72 614.71 101.92
  C 575.09 113.42 542.91 144.00 530.46 183.42
  C 524.68 201.70 523.65 219.52 525.39 239.10
  C 526.04 246.50 527.97 255.69 530.25 262.45
  Q 546.16 309.66 590.29 333.91
  C 622.08 351.38 659.99 354.72 695.31 347.53"
/>
<path stroke="#808080" vector-effect="non-scaling-stroke" d="
  M 2261.14 243.97
  A 0.48 0.45 -73.0 0 1 2261.53 243.75
  L 2446.33 243.75
  A 2.05 2.05 0.0 0 0 2448.36 241.97
  C 2455.78 185.20 2431.16 129.00 2376.39 106.41
  Q 2355.11 97.63 2334.73 95.82
  Q 2315.97 94.16 2293.59 97.80
  C 2243.47 105.97 2198.59 145.53 2190.55 197.01
  C 2190.23 199.04 2189.49 200.96 2189.33 202.69
  Q 2188.55 211.06 2187.99 219.45
  C 2187.67 224.16 2188.34 228.87 2188.58 233.66
  C 2189.20 246.09 2191.84 257.53 2195.97 269.25
  C 2207.81 302.79 2238.16 329.50 2270.24 341.04
  Q 2274.11 342.43 2286.99 346.21
  C 2305.18 351.55 2325.80 351.52 2344.25 350.46
  C 2376.18 348.63 2409.49 336.17 2431.25 311.97
  Q 2432.05 311.09 2431.24 310.21
  L 2394.38 270.16
  A 0.90 0.90 0.0 0 0 2393.10 270.12
  Q 2381.18 281.51 2366.25 287.39
  C 2348.74 294.29 2325.89 294.95 2308.02 290.74
  Q 2271.46 282.13 2260.85 245.23
  Q 2260.69 244.69 2261.14 243.97"
/>
<path stroke="#808080" vector-effect="non-scaling-stroke" d="
  M 1402.70 321.30
  C 1418.27 337.97 1438.23 347.09 1460.00 349.99
  C 1518.38 357.77 1575.40 327.05 1593.80 269.50
  C 1601.54 245.29 1602.77 218.63 1598.06 193.48
  C 1589.69 148.79 1557.66 113.10 1514.21 100.46
  C 1476.42 89.47 1425.99 94.74 1399.56 127.65
  A 0.32 0.32 0.0 0 1 1399.00 127.45
  L 1399.00 99.50
  Q 1399.00 99.00 1398.50 99.00
  L 1330.75 99.00
  A 0.50 0.50 0.0 0 0 1330.25 99.50
  L 1330.25 436.75
  Q 1330.25 437.25 1330.75 437.25
  L 1402.50 437.26
  Q 1402.53 437.26 1402.48 437.14
  Q 1402.46 437.09 1402.42 437.04
  Q 1402.25 436.88 1402.25 436.75
  L 1402.25 321.48
  Q 1402.25 320.82 1402.70 321.30"
/>
<path stroke="#808080" vector-effect="non-scaling-stroke" d="
  M 2566.65 128.70
  A 0.09 0.09 0.0 0 1 2566.50 128.64
  L 2566.50 99.50
  Q 2566.50 99.00 2566.00 99.00
  L 2498.78 99.00
  Q 2498.00 99.00 2498.00 99.78
  L 2498.00 347.00
  Q 2498.00 347.51 2498.50 347.51
  L 2569.20 347.50
  Q 2569.73 347.50 2569.73 346.97
  Q 2569.71 289.02 2570.00 231.06
  C 2570.12 205.94 2573.17 179.34 2597.59 165.57
  C 2611.93 157.48 2631.18 155.59 2647.00 159.98
  C 2662.91 164.39 2672.46 176.13 2676.99 191.82
  Q 2679.82 201.61 2679.85 210.26
  Q 2680.11 278.59 2679.97 346.98
  Q 2679.97 347.51 2680.50 347.51
  L 2751.36 347.50
  Q 2752.01 347.50 2752.01 346.85
  Q 2752.06 275.33 2751.78 203.81
  Q 2751.71 187.18 2748.71 171.76
  C 2737.68 115.11 2687.63 90.51 2633.96 96.30
  C 2608.44 99.06 2584.27 109.35 2566.65 128.70"
/>
<path stroke="#808080" vector-effect="non-scaling-stroke" d="
  M 1134.57 341.00
  A 0.31 0.31 0.0 0 0 1134.82 340.51
  L 965.78 107.68
  A 0.31 0.31 0.0 0 0 965.26 107.71
  L 829.43 340.53
  A 0.31 0.31 0.0 0 0 829.70 341.00
  L 1134.57 341.00"
/>
<path stroke="#808080" vector-effect="non-scaling-stroke" d="
  M 1069.52 235.02
  L 1146.43 340.77
  Q 1146.79 341.25 1147.39 341.25
  L 1279.23 341.25
  Q 1279.83 341.25 1279.52 340.74
  L 1164.08 154.16
  Q 1163.86 153.80 1163.55 154.07
  L 1069.62 234.15
  Q 1069.17 234.54 1069.52 235.02"
/>
<path stroke="#808080" vector-effect="non-scaling-stroke" d="
  M 178.70 87.25
  C 170.77 85.61 162.80 85.49 154.75 85.44
  Q 124.85 85.24 95.55 85.22
  A 1.30 1.30 0.0 0 0 94.25 86.52
  L 94.25 195.70
  A 1.78 1.78 0.0 0 0 96.02 197.48
  Q 128.91 197.56 161.68 197.44
  C 176.78 197.39 198.11 192.37 209.18 180.33
  Q 224.62 163.53 223.75 139.02
  Q 222.79 112.21 203.09 97.06
  C 198.47 93.51 192.92 91.41 187.39 89.25
  C 184.55 88.14 181.72 87.87 178.70 87.25"
/>
<path stroke="#808080" vector-effect="non-scaling-stroke" d="
  M 597.92 212.13
  C 596.80 216.96 597.02 229.18 597.62 231.93
  C 598.63 236.53 599.02 241.48 600.18 245.57
  C 606.92 269.48 625.48 287.12 649.90 291.47
  C 656.73 292.69 667.04 292.46 673.53 291.24
  C 700.89 286.12 719.92 263.54 723.49 236.23
  C 727.21 207.74 719.32 176.64 692.25 162.20
  Q 672.71 151.77 650.41 155.40
  Q 613.72 161.38 601.42 197.36
  Q 600.74 199.35 600.03 201.34
  C 598.82 204.72 598.75 208.57 597.92 212.13"
/>
<path stroke="#808080" vector-effect="non-scaling-stroke" d="
  M 2333.72 150.95
  C 2299.89 145.73 2269.70 160.90 2260.70 195.49
  Q 2259.96 198.31 2260.01 200.10
  Q 2260.05 201.75 2261.70 201.75
  L 2379.78 201.75
  A 1.79 1.79 0.0 0 0 2381.54 199.63
  C 2376.94 175.24 2358.85 154.84 2333.72 150.95"
/>
<path stroke="#808080" vector-effect="non-scaling-stroke" d="
  M 1510.84 271.93
  C 1529.07 250.98 1532.28 220.43 1523.03 194.50
  C 1516.69 176.74 1501.01 162.18 1482.93 156.84
  Q 1470.49 153.16 1454.74 155.22
  C 1435.75 157.69 1418.89 169.14 1409.83 186.13
  C 1400.93 202.81 1399.58 224.44 1403.52 242.74
  C 1411.03 277.59 1440.96 295.84 1475.46 291.19
  C 1489.04 289.36 1501.74 282.39 1510.84 271.93"
/>
</g>
<path fill="#ffffff" d="
  M 0.00 0.00
  L 2764.00 0.00
  L 2764.00 450.00
  L 0.00 450.00
  L 0.00 0.00
  Z
  M 2073.27 275.81
  C 2044.79 290.90 2003.79 293.85 1973.48 282.00
  C 1922.11 261.89 1901.09 206.74 1914.63 155.37
  C 1930.67 94.51 1994.95 70.85 2051.20 87.61
  C 2069.68 93.11 2086.25 104.61 2099.54 118.44
  Q 2099.88 118.79 2100.24 118.46
  L 2147.68 74.72
  Q 2147.91 74.50 2147.70 74.26
  C 2111.04 32.25 2056.96 16.77 2002.73 18.91
  C 1911.97 22.49 1838.31 85.37 1835.02 179.23
  C 1833.26 229.66 1851.63 275.18 1888.14 308.75
  C 1955.31 370.50 2070.76 363.95 2141.59 312.05
  Q 2142.00 311.75 2142.00 311.25
  L 2142.00 181.25
  Q 2142.00 180.75 2141.50 180.75
  L 2074.06 180.75
  Q 2073.75 180.75 2073.75 181.06
  L 2073.75 275.02
  Q 2073.75 275.56 2073.27 275.81
  Z
  M 95.65 258.31
  Q 97.49 258.09 100.00 258.12
  Q 139.39 258.47 178.75 257.40
  C 183.15 257.28 188.02 256.27 192.61 255.83
  Q 197.72 255.35 201.73 254.27
  C 208.69 252.39 216.40 250.62 222.59 248.52
  C 254.54 237.67 280.41 215.64 292.43 183.86
  C 296.89 172.07 298.73 159.04 299.49 146.22
  Q 299.78 141.36 299.33 135.27
  C 298.53 124.35 297.73 113.50 293.93 103.10
  C 292.13 98.16 290.47 93.06 288.13 88.56
  C 268.03 49.84 229.43 30.51 187.31 26.03
  C 178.70 25.12 171.16 24.28 163.00 24.27
  Q 92.03 24.23 20.97 24.26
  A 1.72 1.72 0.0 0 0 19.25 25.98
  L 19.25 345.47
  A 2.03 2.03 0.0 0 0 21.28 347.50
  L 92.41 347.50
  A 1.84 1.84 0.0 0 0 94.25 345.66
  L 94.25 259.89
  A 1.59 1.59 0.0 0 1 95.65 258.31
  Z
  M 1657.25 104.50
  L 1620.00 104.50
  Q 1619.50 104.50 1619.50 105.00
  L 1619.50 159.50
  A 0.50 0.50 0.0 0 0 1620.00 160.00
  L 1657.24 160.00
  Q 1657.75 160.00 1657.75 160.51
  Q 1657.74 209.25 1657.77 257.99
  C 1657.79 278.96 1660.51 300.65 1673.10 318.18
  C 1684.83 334.52 1702.99 344.48 1722.58 348.40
  C 1751.20 354.11 1783.85 351.80 1809.05 335.77
  A 0.43 0.42 64.5 0 0 1809.23 335.26
  L 1790.16 285.38
  A 0.51 0.50 -28.0 0 0 1789.40 285.15
  C 1771.66 297.33 1739.18 299.64 1731.59 273.58
  C 1729.95 267.95 1729.78 261.01 1729.78 254.75
  Q 1729.75 207.57 1729.75 160.48
  A 0.48 0.48 0.0 0 1 1730.23 160.00
  L 1791.25 160.00
  A 0.50 0.50 0.0 0 0 1791.75 159.50
  L 1791.75 105.00
  A 0.50 0.50 0.0 0 0 1791.25 104.50
  L 1730.75 104.50
  A 1.00 1.00 0.0 0 1 1729.75 103.50
  L 1729.75 44.60
  Q 1729.75 44.00 1729.16 44.00
  L 1658.25 44.00
  A 0.50 0.50 0.0 0 0 1657.75 44.50
  L 1657.75 104.00
  Q 1657.75 104.50 1657.25 104.50
  Z
  M 416.74 130.88
  L 416.76 99.75
  A 0.76 0.75 0.0 0 0 416.00 99.00
  L 348.50 99.00
  Q 347.99 99.00 347.99 99.51
  L 348.00 346.97
  Q 348.00 347.50 348.53 347.50
  L 419.21 347.50
  Q 419.79 347.50 419.79 346.91
  Q 419.61 290.38 419.91 233.86
  C 420.03 211.65 422.95 190.06 441.45 175.22
  C 458.71 161.37 480.59 159.11 501.54 161.85
  A 0.54 0.54 0.0 0 0 502.15 161.31
  L 501.94 95.95
  Q 501.94 95.59 501.58 95.59
  C 468.96 94.93 437.58 105.12 417.09 131.01
  A 0.20 0.19 64.6 0 1 416.74 130.88
  Z
  M 695.31 347.53
  C 740.62 338.30 777.91 305.74 791.78 261.74
  C 795.40 250.27 796.19 238.93 797.19 227.06
  C 797.66 221.55 796.87 216.32 796.47 210.81
  C 794.20 179.78 781.31 151.89 758.70 131.04
  C 720.30 95.65 663.67 87.72 614.71 101.92
  C 575.09 113.42 542.91 144.00 530.46 183.42
  C 524.68 201.70 523.65 219.52 525.39 239.10
  C 526.04 246.50 527.97 255.69 530.25 262.45
  Q 546.16 309.66 590.29 333.91
  C 622.08 351.38 659.99 354.72 695.31 347.53
  Z
  M 2261.14 243.97
  A 0.48 0.45 -73.0 0 1 2261.53 243.75
  L 2446.33 243.75
  A 2.05 2.05 0.0 0 0 2448.36 241.97
  C 2455.78 185.20 2431.16 129.00 2376.39 106.41
  Q 2355.11 97.63 2334.73 95.82
  Q 2315.97 94.16 2293.59 97.80
  C 2243.47 105.97 2198.59 145.53 2190.55 197.01
  C 2190.23 199.04 2189.49 200.96 2189.33 202.69
  Q 2188.55 211.06 2187.99 219.45
  C 2187.67 224.16 2188.34 228.87 2188.58 233.66
  C 2189.20 246.09 2191.84 257.53 2195.97 269.25
  C 2207.81 302.79 2238.16 329.50 2270.24 341.04
  Q 2274.11 342.43 2286.99 346.21
  C 2305.18 351.55 2325.80 351.52 2344.25 350.46
  C 2376.18 348.63 2409.49 336.17 2431.25 311.97
  Q 2432.05 311.09 2431.24 310.21
  L 2394.38 270.16
  A 0.90 0.90 0.0 0 0 2393.10 270.12
  Q 2381.18 281.51 2366.25 287.39
  C 2348.74 294.29 2325.89 294.95 2308.02 290.74
  Q 2271.46 282.13 2260.85 245.23
  Q 2260.69 244.69 2261.14 243.97
  Z
  M 1402.70 321.30
  C 1418.27 337.97 1438.23 347.09 1460.00 349.99
  C 1518.38 357.77 1575.40 327.05 1593.80 269.50
  C 1601.54 245.29 1602.77 218.63 1598.06 193.48
  C 1589.69 148.79 1557.66 113.10 1514.21 100.46
  C 1476.42 89.47 1425.99 94.74 1399.56 127.65
  A 0.32 0.32 0.0 0 1 1399.00 127.45
  L 1399.00 99.50
  Q 1399.00 99.00 1398.50 99.00
  L 1330.75 99.00
  A 0.50 0.50 0.0 0 0 1330.25 99.50
  L 1330.25 436.75
  Q 1330.25 437.25 1330.75 437.25
  L 1402.50 437.26
  Q 1402.53 437.26 1402.48 437.14
  Q 1402.46 437.09 1402.42 437.04
  Q 1402.25 436.88 1402.25 436.75
  L 1402.25 321.48
  Q 1402.25 320.82 1402.70 321.30
  Z
  M 2566.65 128.70
  A 0.09 0.09 0.0 0 1 2566.50 128.64
  L 2566.50 99.50
  Q 2566.50 99.00 2566.00 99.00
  L 2498.78 99.00
  Q 2498.00 99.00 2498.00 99.78
  L 2498.00 347.00
  Q 2498.00 347.51 2498.50 347.51
  L 2569.20 347.50
  Q 2569.73 347.50 2569.73 346.97
  Q 2569.71 289.02 2570.00 231.06
  C 2570.12 205.94 2573.17 179.34 2597.59 165.57
  C 2611.93 157.48 2631.18 155.59 2647.00 159.98
  C 2662.91 164.39 2672.46 176.13 2676.99 191.82
  Q 2679.82 201.61 2679.85 210.26
  Q 2680.11 278.59 2679.97 346.98
  Q 2679.97 347.51 2680.50 347.51
  L 2751.36 347.50
  Q 2752.01 347.50 2752.01 346.85
  Q 2752.06 275.33 2751.78 203.81
  Q 2751.71 187.18 2748.71 171.76
  C 2737.68 115.11 2687.63 90.51 2633.96 96.30
  C 2608.44 99.06 2584.27 109.35 2566.65 128.70
  Z
  M 1134.57 341.00
  A 0.31 0.31 0.0 0 0 1134.82 340.51
  L 965.78 107.68
  A 0.31 0.31 0.0 0 0 965.26 107.71
  L 829.43 340.53
  A 0.31 0.31 0.0 0 0 829.70 341.00
  L 1134.57 341.00
  Z
  M 1069.52 235.02
  L 1146.43 340.77
  Q 1146.79 341.25 1147.39 341.25
  L 1279.23 341.25
  Q 1279.83 341.25 1279.52 340.74
  L 1164.08 154.16
  Q 1163.86 153.80 1163.55 154.07
  L 1069.62 234.15
  Q 1069.17 234.54 1069.52 235.02
  Z"
/>
<path fill="#000000" d="
  M 2073.75 275.02
  L 2073.75 181.06
  Q 2073.75 180.75 2074.06 180.75
  L 2141.50 180.75
  Q 2142.00 180.75 2142.00 181.25
  L 2142.00 311.25
  Q 2142.00 311.75 2141.59 312.05
  C 2070.76 363.95 1955.31 370.50 1888.14 308.75
  C 1851.63 275.18 1833.26 229.66 1835.02 179.23
  C 1838.31 85.37 1911.97 22.49 2002.73 18.91
  C 2056.96 16.77 2111.04 32.25 2147.70 74.26
  Q 2147.91 74.50 2147.68 74.72
  L 2100.24 118.46
  Q 2099.88 118.79 2099.54 118.44
  C 2086.25 104.61 2069.68 93.11 2051.20 87.61
  C 1994.95 70.85 1930.67 94.51 1914.63 155.37
  C 1901.09 206.74 1922.11 261.89 1973.48 282.00
  C 2003.79 293.85 2044.79 290.90 2073.27 275.81
  Q 2073.75 275.56 2073.75 275.02
  Z"
/>
<path fill="#000000" d="
  M 95.65 258.31
  A 1.59 1.59 0.0 0 0 94.25 259.89
  L 94.25 345.66
  A 1.84 1.84 0.0 0 1 92.41 347.50
  L 21.28 347.50
  A 2.03 2.03 0.0 0 1 19.25 345.47
  L 19.25 25.98
  A 1.72 1.72 0.0 0 1 20.97 24.26
  Q 92.03 24.23 163.00 24.27
  C 171.16 24.28 178.70 25.12 187.31 26.03
  C 229.43 30.51 268.03 49.84 288.13 88.56
  C 290.47 93.06 292.13 98.16 293.93 103.10
  C 297.73 113.50 298.53 124.35 299.33 135.27
  Q 299.78 141.36 299.49 146.22
  C 298.73 159.04 296.89 172.07 292.43 183.86
  C 280.41 215.64 254.54 237.67 222.59 248.52
  C 216.40 250.62 208.69 252.39 201.73 254.27
  Q 197.72 255.35 192.61 255.83
  C 188.02 256.27 183.15 257.28 178.75 257.40
  Q 139.39 258.47 100.00 258.12
  Q 97.49 258.09 95.65 258.31
  Z
  M 178.70 87.25
  C 170.77 85.61 162.80 85.49 154.75 85.44
  Q 124.85 85.24 95.55 85.22
  A 1.30 1.30 0.0 0 0 94.25 86.52
  L 94.25 195.70
  A 1.78 1.78 0.0 0 0 96.02 197.48
  Q 128.91 197.56 161.68 197.44
  C 176.78 197.39 198.11 192.37 209.18 180.33
  Q 224.62 163.53 223.75 139.02
  Q 222.79 112.21 203.09 97.06
  C 198.47 93.51 192.92 91.41 187.39 89.25
  C 184.55 88.14 181.72 87.87 178.70 87.25
  Z"
/>
<path fill="#000000" d="
  M 1657.75 104.00
  L 1657.75 44.50
  A 0.50 0.50 0.0 0 1 1658.25 44.00
  L 1729.16 44.00
  Q 1729.75 44.00 1729.75 44.60
  L 1729.75 103.50
  A 1.00 1.00 0.0 0 0 1730.75 104.50
  L 1791.25 104.50
  A 0.50 0.50 0.0 0 1 1791.75 105.00
  L 1791.75 159.50
  A 0.50 0.50 0.0 0 1 1791.25 160.00
  L 1730.23 160.00
  A 0.48 0.48 0.0 0 0 1729.75 160.48
  Q 1729.75 207.57 1729.78 254.75
  C 1729.78 261.01 1729.95 267.95 1731.59 273.58
  C 1739.18 299.64 1771.66 297.33 1789.40 285.15
  A 0.51 0.50 -28.0 0 1 1790.16 285.38
  L 1809.23 335.26
  A 0.43 0.42 64.5 0 1 1809.05 335.77
  C 1783.85 351.80 1751.20 354.11 1722.58 348.40
  C 1702.99 344.48 1684.83 334.52 1673.10 318.18
  C 1660.51 300.65 1657.79 278.96 1657.77 257.99
  Q 1657.74 209.25 1657.75 160.51
  Q 1657.75 160.00 1657.24 160.00
  L 1620.00 160.00
  A 0.50 0.50 0.0 0 1 1619.50 159.50
  L 1619.50 105.00
  Q 1619.50 104.50 1620.00 104.50
  L 1657.25 104.50
  Q 1657.75 104.50 1657.75 104.00
  Z"
/>
<path fill="#ffffff" d="
  M 178.70 87.25
  C 181.72 87.87 184.55 88.14 187.39 89.25
  C 192.92 91.41 198.47 93.51 203.09 97.06
  Q 222.79 112.21 223.75 139.02
  Q 224.62 163.53 209.18 180.33
  C 198.11 192.37 176.78 197.39 161.68 197.44
  Q 128.91 197.56 96.02 197.48
  A 1.78 1.78 0.0 0 1 94.25 195.70
  L 94.25 86.52
  A 1.30 1.30 0.0 0 1 95.55 85.22
  Q 124.85 85.24 154.75 85.44
  C 162.80 85.49 170.77 85.61 178.70 87.25
  Z"
/>
<path fill="#000000" d="
  M 416.74 130.88
  A 0.20 0.19 64.6 0 0 417.09 131.01
  C 437.58 105.12 468.96 94.93 501.58 95.59
  Q 501.94 95.59 501.94 95.95
  L 502.15 161.31
  A 0.54 0.54 0.0 0 1 501.54 161.85
  C 480.59 159.11 458.71 161.37 441.45 175.22
  C 422.95 190.06 420.03 211.65 419.91 233.86
  Q 419.61 290.38 419.79 346.91
  Q 419.79 347.50 419.21 347.50
  L 348.53 347.50
  Q 348.00 347.50 348.00 346.97
  L 347.99 99.51
  Q 347.99 99.00 348.50 99.00
  L 416.00 99.00
  A 0.76 0.75 0.0 0 1 416.76 99.75
  L 416.74 130.88
  Z"
/>
<path fill="#000000" d="
  M 791.78 261.74
  C 777.91 305.74 740.62 338.30 695.31 347.53
  C 659.99 354.72 622.08 351.38 590.29 333.91
  Q 546.16 309.66 530.25 262.45
  C 527.97 255.69 526.04 246.50 525.39 239.10
  C 523.65 219.52 524.68 201.70 530.46 183.42
  C 542.91 144.00 575.09 113.42 614.71 101.92
  C 663.67 87.72 720.30 95.65 758.70 131.04
  C 781.31 151.89 794.20 179.78 796.47 210.81
  C 796.87 216.32 797.66 221.55 797.19 227.06
  C 796.19 238.93 795.40 250.27 791.78 261.74
  Z
  M 597.92 212.13
  C 596.80 216.96 597.02 229.18 597.62 231.93
  C 598.63 236.53 599.02 241.48 600.18 245.57
  C 606.92 269.48 625.48 287.12 649.90 291.47
  C 656.73 292.69 667.04 292.46 673.53 291.24
  C 700.89 286.12 719.92 263.54 723.49 236.23
  C 727.21 207.74 719.32 176.64 692.25 162.20
  Q 672.71 151.77 650.41 155.40
  Q 613.72 161.38 601.42 197.36
  Q 600.74 199.35 600.03 201.34
  C 598.82 204.72 598.75 208.57 597.92 212.13
  Z"
/>
<path fill="#000000" d="
  M 2261.14 243.97
  Q 2260.69 244.69 2260.85 245.23
  Q 2271.46 282.13 2308.02 290.74
  C 2325.89 294.95 2348.74 294.29 2366.25 287.39
  Q 2381.18 281.51 2393.10 270.12
  A 0.90 0.90 0.0 0 1 2394.38 270.16
  L 2431.24 310.21
  Q 2432.05 311.09 2431.25 311.97
  C 2409.49 336.17 2376.18 348.63 2344.25 350.46
  C 2325.80 351.52 2305.18 351.55 2286.99 346.21
  Q 2274.11 342.43 2270.24 341.04
  C 2238.16 329.50 2207.81 302.79 2195.97 269.25
  C 2191.84 257.53 2189.20 246.09 2188.58 233.66
  C 2188.34 228.87 2187.67 224.16 2187.99 219.45
  Q 2188.55 211.06 2189.33 202.69
  C 2189.49 200.96 2190.23 199.04 2190.55 197.01
  C 2198.59 145.53 2243.47 105.97 2293.59 97.80
  Q 2315.97 94.16 2334.73 95.82
  Q 2355.11 97.63 2376.39 106.41
  C 2431.16 129.00 2455.78 185.20 2448.36 241.97
  A 2.05 2.05 0.0 0 1 2446.33 243.75
  L 2261.53 243.75
  A 0.48 0.45 -73.0 0 0 2261.14 243.97
  Z
  M 2333.72 150.95
  C 2299.89 145.73 2269.70 160.90 2260.70 195.49
  Q 2259.96 198.31 2260.01 200.10
  Q 2260.05 201.75 2261.70 201.75
  L 2379.78 201.75
  A 1.79 1.79 0.0 0 0 2381.54 199.63
  C 2376.94 175.24 2358.85 154.84 2333.72 150.95
  Z"
/>
<path fill="#000000" d="
  M 1402.25 321.48
  L 1402.25 436.75
  Q 1402.25 436.88 1402.42 437.04
  Q 1402.46 437.09 1402.48 437.14
  Q 1402.53 437.26 1402.50 437.26
  L 1330.75 437.25
  Q 1330.25 437.25 1330.25 436.75
  L 1330.25 99.50
  A 0.50 0.50 0.0 0 1 1330.75 99.00
  L 1398.50 99.00
  Q 1399.00 99.00 1399.00 99.50
  L 1399.00 127.45
  A 0.32 0.32 0.0 0 0 1399.56 127.65
  C 1425.99 94.74 1476.42 89.47 1514.21 100.46
  C 1557.66 113.10 1589.69 148.79 1598.06 193.48
  C 1602.77 218.63 1601.54 245.29 1593.80 269.50
  C 1575.40 327.05 1518.38 357.77 1460.00 349.99
  C 1438.23 347.09 1418.27 337.97 1402.70 321.30
  Q 1402.25 320.82 1402.25 321.48
  Z
  M 1510.84 271.93
  C 1529.07 250.98 1532.28 220.43 1523.03 194.50
  C 1516.69 176.74 1501.01 162.18 1482.93 156.84
  Q 1470.49 153.16 1454.74 155.22
  C 1435.75 157.69 1418.89 169.14 1409.83 186.13
  C 1400.93 202.81 1399.58 224.44 1403.52 242.74
  C 1411.03 277.59 1440.96 295.84 1475.46 291.19
  C 1489.04 289.36 1501.74 282.39 1510.84 271.93
  Z"
/>
<path fill="#000000" d="
  M 2566.65 128.70
  C 2584.27 109.35 2608.44 99.06 2633.96 96.30
  C 2687.63 90.51 2737.68 115.11 2748.71 171.76
  Q 2751.71 187.18 2751.78 203.81
  Q 2752.06 275.33 2752.01 346.85
  Q 2752.01 347.50 2751.36 347.50
  L 2680.50 347.51
  Q 2679.97 347.51 2679.97 346.98
  Q 2680.11 278.59 2679.85 210.26
  Q 2679.82 201.61 2676.99 191.82
  C 2672.46 176.13 2662.91 164.39 2647.00 159.98
  C 2631.18 155.59 2611.93 157.48 2597.59 165.57
  C 2573.17 179.34 2570.12 205.94 2570.00 231.06
  Q 2569.71 289.02 2569.73 346.97
  Q 2569.73 347.50 2569.20 347.50
  L 2498.50 347.51
  Q 2498.00 347.51 2498.00 347.00
  L 2498.00 99.78
  Q 2498.00 99.00 2498.78 99.00
  L 2566.00 99.00
  Q 2566.50 99.00 2566.50 99.50
  L 2566.50 128.64
  A 0.09 0.09 0.0 0 0 2566.65 128.70
  Z"
/>
<path fill="#000000" d="
  M 1134.57 341.00
  L 829.70 341.00
  A 0.31 0.31 0.0 0 1 829.43 340.53
  L 965.26 107.71
  A 0.31 0.31 0.0 0 1 965.78 107.68
  L 1134.82 340.51
  A 0.31 0.31 0.0 0 1 1134.57 341.00
  Z"
/>
<path fill="#ffffff" d="
  M 2333.72 150.95
  C 2358.85 154.84 2376.94 175.24 2381.54 199.63
  A 1.79 1.79 0.0 0 1 2379.78 201.75
  L 2261.70 201.75
  Q 2260.05 201.75 2260.01 200.10
  Q 2259.96 198.31 2260.70 195.49
  C 2269.70 160.90 2299.89 145.73 2333.72 150.95
  Z"
/>
<path fill="#000000" d="
  M 1146.43 340.77
  L 1069.52 235.02
  Q 1069.17 234.54 1069.62 234.15
  L 1163.55 154.07
  Q 1163.86 153.80 1164.08 154.16
  L 1279.52 340.74
  Q 1279.83 341.25 1279.23 341.25
  L 1147.39 341.25
  Q 1146.79 341.25 1146.43 340.77
  Z"
/>
<path fill="#ffffff" d="
  M 1523.03 194.50
  C 1532.28 220.43 1529.07 250.98 1510.84 271.93
  C 1501.74 282.39 1489.04 289.36 1475.46 291.19
  C 1440.96 295.84 1411.03 277.59 1403.52 242.74
  C 1399.58 224.44 1400.93 202.81 1409.83 186.13
  C 1418.89 169.14 1435.75 157.69 1454.74 155.22
  Q 1470.49 153.16 1482.93 156.84
  C 1501.01 162.18 1516.69 176.74 1523.03 194.50
  Z"
/>
<path fill="#ffffff" d="
  M 597.62 231.93
  C 597.02 229.18 596.80 216.96 597.92 212.13
  C 598.75 208.57 598.82 204.72 600.03 201.34
  Q 600.74 199.35 601.42 197.36
  Q 613.72 161.38 650.41 155.40
  Q 672.71 151.77 692.25 162.20
  C 719.32 176.64 727.21 207.74 723.49 236.23
  C 719.92 263.54 700.89 286.12 673.53 291.24
  C 667.04 292.46 656.73 292.69 649.90 291.47
  C 625.48 287.12 606.92 269.48 600.18 245.57
  C 599.02 241.48 598.63 236.53 597.62 231.93
  Z"
/>
</svg>
