<svg version="1.1" viewBox="0.0 0.0 960.0 540.0" fill="none" stroke="none" stroke-linecap="square" stroke-miterlimit="10" xmlns:xlink="http://www.w3.org/1999/xlink" xmlns="http://www.w3.org/2000/svg"><clipPath id="g239bfe7c0b7_0_0.0"><path d="m0 0l960.0 0l0 540.0l-960.0 0l0 -540.0z" clip-rule="nonzero"/></clipPath><g clip-path="url(#g239bfe7c0b7_0_0.0)"><path fill="#ffffff" d="m0 0l960.0 0l0 540.0l-960.0 0z" fill-rule="evenodd"/><path fill="#000000" fill-opacity="0.0" d="m124.00525 64.29921l668.0315 0l0 205.70079l-668.0315 0z" fill-rule="evenodd"/><path fill="#000000" d="m154.2865 145.20421l0 25.375l-14.84375 0l0 -72.03125l28.09375 0q8.125 0 14.28125 2.96875q6.15625 2.96875 9.46875 8.4375q3.3125 5.453125 3.3125 12.4375q0 10.578125 -7.25 16.703125q-7.234375 6.109375 -20.0625 6.109375l-13.0 0zm0 -12.03125l13.25 0q5.890625 0 8.984375 -2.765625q3.09375 -2.78125 3.09375 -7.921875q0 -5.296875 -3.125 -8.5625q-3.109375 -3.265625 -8.609375 -3.359375l-13.59375 0l0 22.609375zm79.6555 -2.71875q-2.921875 -0.390625 -5.15625 -0.390625q-8.109375 0 -10.625 5.484375l0 35.03125l-14.3125 0l0 -53.53125l13.515625 0l0.390625 6.375q4.3125 -7.359375 11.921875 -7.359375q2.375 0 4.453125 0.640625l-0.1875 13.75zm2.8652954 12.859375q0 -7.96875 3.0625 -14.203125q3.078125 -6.234375 8.828125 -9.640625q5.765625 -3.40625 13.39064 -3.40625q10.84375 0 17.6875 6.625q6.859375 6.625 7.640625 18.0l0.109375 3.671875q0 12.3125 -6.890625 19.765625q-6.875 7.4375 -18.453125 7.4375q-11.57814 0 -18.48439 -7.421875q-6.890625 -7.421875 -6.890625 -20.1875l0 -0.640625zm14.296875 1.046875q0 7.609375 2.859375 11.65625q2.8750153 4.03125 8.218765 4.03125q5.203125 0 8.125 -3.984375q2.921875 -3.984375 2.921875 -12.75q0 -7.46875 -2.921875 -11.578125q-2.921875 -4.109375 -8.21875 -4.109375q-5.25 0 -8.125015 4.09375q-2.859375 4.078125 -2.859375 12.640625zm58.63768 -27.3125l0.4375 5.984375q5.6875 -6.96875 15.390625 -6.96875q10.34375 0 14.203125 8.15625q5.640625 -8.15625 16.078125 -8.15625q8.703125 0 12.953125 5.078125q4.265625 5.0625 4.265625 15.25l0 34.1875l-14.359375 0l0 -34.140625q0 -4.546875 -1.78125 -6.640625q-1.78125 -2.109375 -6.28125 -2.109375q-6.421875 0 -8.90625 6.125l0.046875 36.765625l-14.296875 0l0 -34.09375q0 -4.640625 -1.828125 -6.71875q-1.828125 -2.078125 -6.234375 -2.078125q-6.078125 0 -8.796875 5.046875l0 37.84375l-14.3125 0l0 -53.53125l13.421875 0zm122.50333 27.265625q0 12.359375 -5.625 19.8125q-5.609375 7.4375 -15.15625 7.4375q-8.125 0 -13.109375 -5.640625l0 25.234375l-14.3125 0l0 -74.109375l13.265625 0l0.5 5.234375q5.1875 -6.21875 13.546875 -6.21875q9.90625 0 15.390625 7.328125q5.5 7.3125 5.5 20.171875l0 0.75zm-14.296875 -1.046875q0 -7.46875 -2.65625 -11.515625q-2.640625 -4.0625 -7.6875 -4.0625q-6.734375 0 -9.25 5.140625l0 21.921875q2.609375 5.296875 9.34375 5.296875q10.25 0 10.25 -16.78125zm40.26529 -39.375l0 13.15625l9.15625 0l0 10.484375l-9.15625 0l0 26.71875q0 2.96875 1.140625 4.265625q1.140625 1.28125 4.359375 1.28125q2.375 0 4.203125 -0.34375l0 10.828125q-4.203125 1.28125 -8.65625 1.28125q-15.046875 0 -15.34375 -15.1875l0 -28.84375l-7.8125 0l0 -10.484375l7.8125 0l0 -13.15625l14.296875 0zm75.05032 57.578125q-4.0 4.8125 -11.328125 7.453125q-7.3125 2.640625 -16.21875 2.640625q-9.359375 0 -16.40625 -4.078125q-7.046875 -4.078125 -10.890625 -11.84375q-3.828125 -7.765625 -3.921875 -18.265625l0 -4.890625q0 -10.796875 3.625 -18.6875q3.640625 -7.890625 10.484375 -12.0625q6.859375 -4.1875 16.0625 -4.1875q12.8125 0 20.03125 6.109375q7.234375 6.109375 8.5625 17.796875l-14.4375 0q-0.984375 -6.1875 -4.375 -9.046875q-3.390625 -2.875 -9.328125 -2.875q-7.578125 0 -11.53125 5.6875q-3.953125 5.6875 -4.015625 16.921875l0 4.59375q0 11.328125 4.296875 17.125q4.3125 5.78125 12.625 5.78125q8.375 0 11.9375 -3.5625l0 -12.421875l-13.515625 0l0 -10.921875l28.34375 0l0 28.734375zm35.723022 10.09375q-11.765625 0 -19.171875 -7.21875q-7.390625 -7.21875 -7.390625 -19.25l0 -1.375q0 -8.078125 3.109375 -14.421875q3.125 -6.359375 8.828125 -9.796875q5.71875 -3.4375 13.046875 -3.4375q10.984375 0 17.28125 6.921875q6.3125 6.921875 6.3125 19.640625l0 5.84375l-34.078125 0q0.6875 5.234375 4.171875 8.40625q3.5 3.171875 8.84375 3.171875q8.25 0 12.90625 -6.0l7.03125 7.875q-3.21875 4.546875 -8.71875 7.09375q-5.484375 2.546875 -12.171875 2.546875zm-1.625 -43.9375q-4.25 0 -6.90625 2.875q-2.640625 2.875 -3.390625 8.21875l19.890625 0l0 -1.140625q-0.09375 -4.75 -2.578125 -7.34375q-2.46875 -2.609375 -7.015625 -2.609375zm44.92688 -10.578125l0.4375 6.1875q5.75 -7.171875 15.390625 -7.171875q8.515625 0 12.671875 5.0q4.15625 4.984375 4.25 14.9375l0 34.578125l-14.296875 0l0 -34.234375q0 -4.5625 -1.984375 -6.609375q-1.96875 -2.046875 -6.578125 -2.046875q-6.03125 0 -9.046875 5.140625l0 37.75l-14.3125 0l0 -53.53125l13.46875 0z" fill-rule="nonzero"/><path fill="#ffffff" d="m291.7139 101.58793l87.68506 0l0 74.45669l-87.68506 0z" fill-rule="evenodd"/><path stroke="#ffffff" stroke-width="1.0" stroke-linejoin="round" stroke-linecap="butt" d="m291.7139 101.58793l87.68506 0l0 74.45669l-87.68506 0z" fill-rule="evenodd"/><path fill="#000000" d="m313.76657 173.54771l30.729584 -69.48031l30.729614 69.48031z" fill-rule="evenodd"/><path fill="#ffffff" d="m295.88498 173.56491l26.153595 -59.149605l26.153595 59.149605z" fill-rule="evenodd"/><path stroke="#ffffff" stroke-width="1.0" stroke-linejoin="round" stroke-linecap="butt" d="m295.88498 173.56491l26.153595 -59.149605l26.153595 59.149605z" fill-rule="evenodd"/><path fill="#000000" d="m295.88498 173.55821l22.158386 -50.11023l22.158417 50.11023z" fill-rule="evenodd"/><path stroke="#000000" stroke-width="1.0" stroke-linejoin="round" stroke-linecap="butt" d="m295.88498 173.55821l22.158386 -50.11023l22.158417 50.11023z" fill-rule="evenodd"/></g></svg>