<?xml version="1.0" encoding="UTF-8" standalone="no"?> <!-- Created with Vectornator for iOS (http://vectornator.io/) --><!DOCTYPE svg PUBLIC "-//W3C//DTD SVG 1.1//EN" "http://www.w3.org/Graphics/SVG/1.1/DTD/svg11.dtd">
<svg style="fill-rule:nonzero;clip-rule:evenodd;stroke-linecap:round;stroke-linejoin:round;" height="100%" xmlns:vectornator="http://vectornator.io" xmlns="http://www.w3.org/2000/svg" xmlns:xlink="http://www.w3.org/1999/xlink" version="1.1" width="100%" viewBox="0 0 458 458" xml:space="preserve">
<metadata>
<vectornator:setting key="WDRulersVisible" value="true"/>
<vectornator:setting value="false" key="WDOutlineMode"/>
<vectornator:setting key="WDUnits" value="Points"/>
<vectornator:setting key="WDCMYKEnabledKey" value="false"/>
<vectornator:setting key="WDGuidesVisible" value="true"/>
<vectornator:setting value="false" key="WDSnapToPoints"/>
<vectornator:setting value="true" key="UndoHistoryDisabled"/>
<vectornator:setting value="false" key="WDDisplayWhiteBackground"/>
<vectornator:setting key="WDIsolateActiveLayer" value="false"/>
<vectornator:setting key="WDSnapToEdges" value="false"/>
<vectornator:setting key="WDSnapToGrid" value="false"/>
<vectornator:setting value="false" key="WDDynamicGuides"/>
<vectornator:setting value="true" key="VNDimensionsVisible"/>
<vectornator:setting key="VNSnapToGuides" value="true"/>
<vectornator:setting value="false" key="IsTimeLapseWatermarkDisabled"/>
</metadata>
<defs/>
<g id="Untitled" vectornator:layerName="Untitled">
<g opacity="1">
<path d="M310.95+342.68L141.71+109.62C141.57+109.413+141.437+109.417+141.31+109.63L5.48+342.44C5.41135+342.555+5.40991+342.698+5.47624+342.814C5.54256+342.93+5.66633+343.001+5.8+343L310.79+343C310.866+343+310.935+342.957+310.969+342.889C311.003+342.822+310.995+342.741+310.95+342.68" stroke-width="2" stroke-linejoin="miter" fill="none" stroke-linecap="butt" stroke="#808080" opacity="1"/>
<path d="M339.54+156.07L245.62+236.14C245.32+236.4+245.287+236.69+245.52+237.01L322.24+342.48C322.607+342.993+323.107+343.25+323.74+343.25L455.23+343.25C455.63+343.25+455.723+343.08+455.51+342.74L340.08+156.16C339.933+155.92+339.753+155.89+339.54+156.07" stroke="#808080" stroke-linejoin="miter" stroke-width="2" opacity="1" stroke-linecap="butt" fill="none"/>
</g>
<path opacity="1" d="M141.71+109.62L310.95+342.68C310.995+342.741+311.003+342.822+310.969+342.889C310.935+342.957+310.866+343+310.79+343L5.8+343C5.66633+343.001+5.54256+342.93+5.47624+342.814C5.40991+342.698+5.41135+342.555+5.48+342.44L141.31+109.63C141.437+109.417+141.57+109.413+141.71+109.62Z" fill="#000000"/>
<path d="M245.62+236.14L339.54+156.07C339.753+155.89+339.933+155.92+340.08+156.16L455.51+342.74C455.723+343.08+455.63+343.25+455.23+343.25L323.74+343.25C323.107+343.25+322.607+342.993+322.24+342.48L245.52+237.01C245.287+236.69+245.32+236.4+245.62+236.14Z" opacity="1" fill="#000000"/>
</g>
<g vectornator:layerName="Untitled コピー" id="Untitled コピー">
<g opacity="1">
<path stroke-linecap="butt" d="M310.95+342.68L141.71+109.62C141.57+109.413+141.437+109.417+141.31+109.63L5.48+342.44C5.41135+342.555+5.40991+342.698+5.47624+342.814C5.54256+342.93+5.66633+343.001+5.8+343L310.79+343C310.866+343+310.935+342.957+310.969+342.889C311.003+342.822+310.995+342.741+310.95+342.68" stroke-linejoin="miter" fill="none" opacity="1" stroke="#808080" stroke-width="2"/>
<path fill="none" stroke-linecap="butt" d="M339.54+156.07L245.62+236.14C245.32+236.4+245.287+236.69+245.52+237.01L322.24+342.48C322.607+342.993+323.107+343.25+323.74+343.25L455.23+343.25C455.63+343.25+455.723+343.08+455.51+342.74L340.08+156.16C339.933+155.92+339.753+155.89+339.54+156.07" stroke="#808080" stroke-width="2" opacity="1" stroke-linejoin="miter"/>
</g>
<path opacity="1" fill="#ffffff" d="M141.71+109.62L310.95+342.68C310.995+342.741+311.003+342.822+310.969+342.889C310.935+342.957+310.866+343+310.79+343L5.8+343C5.66633+343.001+5.54256+342.93+5.47624+342.814C5.40991+342.698+5.41135+342.555+5.48+342.44L141.31+109.63C141.437+109.417+141.57+109.413+141.71+109.62Z"/>
<path d="M245.62+236.14L339.54+156.07C339.753+155.89+339.933+155.92+340.08+156.16L455.51+342.74C455.723+343.08+455.63+343.25+455.23+343.25L323.74+343.25C323.107+343.25+322.607+342.993+322.24+342.48L245.52+237.01C245.287+236.69+245.32+236.4+245.62+236.14Z" opacity="1" fill="#ffffff"/>
</g>
</svg>
