<?xml version="1.0" encoding="UTF-8" standalone="no"?>
<!DOCTYPE svg PUBLIC "-//W3C//DTD SVG 1.1//EN" "http://www.w3.org/Graphics/SVG/1.1/DTD/svg11.dtd">
<svg xmlns="http://www.w3.org/2000/svg" version="1.1" viewBox="0.00 0.00 2308.00 360.00">
<clipPath id="clipping-path-0">
<path d="
  M 0.00 0.00
  L 2308.00 0.00
  L 2308.00 360.00
  L 0.00 360.00
  L 0.00 0.00
  Z"/>
</clipPath>
<g stroke-width="2.00" fill="none" stroke-linecap="butt" clip-path="url(#clipping-path-0)">
<path stroke="#808080" vector-effect="non-scaling-stroke" d="
  M 1772.08 158.71
  L 1771.76 228.00
  Q 1771.76 228.26 1771.52 228.38
  C 1728.01 249.24 1670.73 237.47 1655.36 186.56
  Q 1648.82 164.89 1653.92 142.43
  C 1661.71 108.11 1689.94 87.65 1724.27 85.95
  Q 1763.93 84.00 1790.81 112.22
  Q 1791.22 112.65 1791.66 112.25
  L 1826.34 80.26
  Q 1826.72 79.91 1826.37 79.52
  Q 1798.00 48.74 1756.50 41.46
  C 1714.48 34.09 1668.99 41.92 1636.26 70.79
  C 1612.39 91.83 1598.86 120.08 1596.35 151.92
  C 1591.29 216.14 1634.27 272.16 1698.01 282.76
  C 1739.69 289.68 1786.79 280.88 1821.78 255.20
  Q 1822.25 254.86 1822.25 254.28
  L 1822.25 158.75
  Q 1822.25 158.25 1821.75 158.25
  L 1772.54 158.25
  A 0.46 0.46 0.0 0 0 1772.08 158.71"
/>
<path stroke="#808080" vector-effect="non-scaling-stroke" d="
  M 96.00 216.29
  Q 96.00 215.39 96.89 215.41
  Q 121.38 215.77 145.50 215.25
  C 160.53 214.92 173.93 213.56 186.99 209.50
  C 219.20 199.48 241.95 176.58 246.56 142.67
  C 250.72 112.08 241.44 82.69 216.88 63.82
  C 197.08 48.60 170.62 43.02 145.99 42.99
  Q 93.79 42.94 41.49 43.02
  Q 41.00 43.02 41.00 43.51
  L 41.00 280.52
  Q 41.00 281.04 41.52 281.04
  L 95.38 280.99
  Q 96.00 280.99 96.00 280.37
  L 96.00 216.29"
/>
<path stroke="#808080" vector-effect="non-scaling-stroke" d="
  M 1301.27 143.43
  A 0.62 0.62 0.0 0 1 1301.89 142.81
  L 1346.42 142.85
  Q 1347.00 142.85 1347.00 142.27
  L 1347.00 102.71
  Q 1347.00 102.24 1346.53 102.24
  L 1302.00 102.26
  A 0.76 0.75 90.0 0 1 1301.25 101.50
  L 1301.25 58.00
  Q 1301.25 57.50 1300.75 57.50
  L 1248.75 57.50
  Q 1248.25 57.50 1248.25 58.00
  L 1248.25 101.63
  Q 1248.25 102.27 1247.62 102.27
  L 1220.52 102.22
  Q 1220.00 102.22 1220.00 102.73
  L 1220.00 142.26
  Q 1220.00 142.78 1220.51 142.78
  L 1247.74 142.74
  A 0.53 0.53 0.0 0 1 1248.27 143.27
  Q 1248.18 180.84 1248.35 218.44
  Q 1248.41 232.45 1251.97 244.01
  C 1263.40 281.18 1306.02 288.79 1339.08 281.08
  Q 1350.76 278.36 1359.46 272.55
  Q 1359.90 272.25 1359.71 271.75
  L 1345.88 235.58
  A 0.61 0.60 61.9 0 0 1344.97 235.30
  C 1329.36 246.18 1303.76 244.50 1301.64 220.81
  Q 1301.29 216.92 1301.28 213.00
  Q 1301.19 178.11 1301.27 143.43"
/>
<path stroke="#808080" vector-effect="non-scaling-stroke" d="
  M 334.16 121.90
  A 0.23 0.23 0.0 0 1 333.75 121.76
  L 333.75 98.50
  A 0.50 0.50 0.0 0 0 333.25 98.00
  L 283.50 98.00
  Q 283.00 98.00 283.00 98.50
  L 283.00 280.66
  Q 283.00 281.06 283.41 281.06
  L 335.55 280.98
  Q 336.09 280.98 336.09 280.43
  Q 335.73 210.76 336.24 188.75
  Q 336.42 180.80 339.62 171.87
  C 348.28 147.72 372.85 141.67 395.92 144.26
  A 0.75 0.74 3.1 0 0 396.75 143.52
  L 396.75 96.01
  Q 396.75 95.53 396.28 95.53
  C 372.87 95.05 348.74 102.59 334.16 121.90"
/>
<path stroke="#808080" vector-effect="non-scaling-stroke" d="
  M 413.45 195.74
  C 415.23 237.02 445.40 270.40 484.93 280.20
  C 540.63 294.01 602.94 266.74 612.86 206.01
  C 621.12 155.42 591.61 109.55 540.68 98.35
  C 474.30 83.75 410.32 123.41 413.45 195.74"
/>
<path stroke="#808080" vector-effect="non-scaling-stroke" d="
  M 1057.98 118.72
  A 0.28 0.28 0.0 0 1 1057.50 118.52
  L 1057.50 98.50
  Q 1057.50 98.00 1057.00 98.00
  L 1007.78 98.00
  Q 1007.00 98.00 1007.00 98.78
  L 1007.00 346.75
  Q 1007.00 347.25 1007.50 347.25
  L 1059.50 347.25
  Q 1060.00 347.25 1060.00 346.75
  L 1060.00 261.82
  A 0.15 0.14 23.1 0 1 1060.25 261.72
  Q 1078.01 280.29 1103.76 283.10
  C 1136.28 286.65 1167.09 275.55 1187.07 250.03
  C 1204.68 227.55 1209.17 197.60 1204.66 170.05
  C 1198.50 132.50 1169.52 102.45 1132.00 96.80
  C 1114.39 94.15 1097.42 95.22 1081.14 102.00
  C 1070.79 106.31 1065.27 111.71 1057.98 118.72"
/>
<path stroke="#808080" vector-effect="non-scaling-stroke" d="
  M 1571.49 185.05
  C 1568.33 116.74 1502.84 83.52 1441.15 99.20
  C 1410.26 107.05 1383.88 129.98 1374.80 161.01
  C 1357.01 221.80 1397.28 277.77 1459.27 283.19
  Q 1471.69 284.27 1484.04 283.05
  C 1535.64 277.92 1573.94 237.99 1571.49 185.05"
/>
<path stroke="#808080" vector-effect="non-scaling-stroke" d="
  M 1909.65 204.96
  A 0.37 0.37 0.0 0 1 1910.01 204.50
  L 2047.49 204.50
  Q 2047.97 204.50 2048.03 204.02
  C 2054.62 149.54 2023.62 102.60 1967.50 96.16
  C 1902.21 88.68 1848.71 135.42 1857.02 202.75
  C 1859.72 224.70 1870.26 244.77 1887.14 259.00
  C 1914.12 281.74 1950.94 287.58 1985.05 281.59
  Q 2014.85 276.36 2035.74 254.71
  A 0.54 0.53 46.2 0 0 2035.75 253.97
  L 2008.21 224.03
  Q 2007.80 223.58 2007.36 224.00
  Q 1992.74 237.95 1972.34 240.61
  C 1944.84 244.19 1917.18 234.49 1909.65 204.96"
/>
<path stroke="#808080" vector-effect="non-scaling-stroke" d="
  M 2135.63 119.42
  A 0.22 0.22 0.0 0 1 2135.25 119.26
  L 2135.25 98.50
  A 0.50 0.50 0.0 0 0 2134.75 98.00
  L 2085.00 98.00
  Q 2084.50 98.00 2084.50 98.50
  L 2084.50 280.00
  Q 2084.50 281.00 2085.50 281.00
  L 2137.04 281.01
  Q 2137.49 281.01 2137.49 280.55
  Q 2137.47 235.18 2137.62 189.82
  C 2137.70 167.23 2146.68 147.38 2170.66 142.35
  C 2182.74 139.81 2197.03 141.42 2206.33 149.56
  C 2216.68 158.63 2218.64 173.20 2218.67 186.32
  Q 2218.77 233.37 2218.75 280.49
  Q 2218.75 280.99 2219.25 280.99
  L 2271.23 281.01
  Q 2271.61 281.01 2271.61 280.63
  Q 2272.12 202.32 2271.54 169.75
  C 2271.32 157.53 2267.98 142.63 2262.25 131.78
  Q 2247.55 103.94 2214.72 97.42
  C 2186.01 91.72 2155.97 98.13 2135.63 119.42"
/>
<path stroke="#808080" vector-effect="non-scaling-stroke" d="
  M 637.93 275.74
  A 0.34 0.34 0.0 0 0 638.22 276.25
  L 862.40 276.25
  A 0.34 0.34 0.0 0 0 862.68 275.71
  L 738.48 104.66
  A 0.34 0.34 0.0 0 0 737.91 104.69
  L 637.93 275.74"
/>
<path stroke="#808080" vector-effect="non-scaling-stroke" d="
  M 968.88 276.25
  A 0.33 0.33 0.0 0 0 969.16 275.75
  L 884.40 138.81
  A 0.33 0.33 0.0 0 0 883.91 138.73
  L 814.79 197.66
  A 0.33 0.33 0.0 0 0 814.74 198.11
  L 871.42 276.11
  A 0.33 0.33 0.0 0 0 871.69 276.25
  L 968.88 276.25"
/>
<path stroke="#808080" vector-effect="non-scaling-stroke" d="
  M 145.75 87.96
  Q 121.31 87.46 96.64 87.86
  Q 96.01 87.87 96.01 88.50
  L 96.00 169.01
  Q 96.00 170.50 97.49 170.50
  Q 121.10 170.60 145.81 170.20
  C 167.59 169.84 186.94 160.98 190.85 137.48
  C 196.05 106.23 175.83 88.58 145.75 87.96"
/>
<path stroke="#808080" vector-effect="non-scaling-stroke" d="
  M 521.03 139.41
  C 450.59 130.58 448.70 243.62 516.40 240.19
  C 573.82 237.27 575.57 146.25 521.03 139.41"
/>
<path stroke="#808080" vector-effect="non-scaling-stroke" d="
  M 1111.99 239.94
  C 1167.81 233.25 1165.97 140.97 1108.00 138.89
  C 1040.59 136.47 1044.15 248.07 1111.99 239.94"
/>
<path stroke="#808080" vector-effect="non-scaling-stroke" d="
  M 1425.33 177.42
  C 1419.72 209.29 1436.97 240.89 1472.44 240.28
  C 1507.57 239.66 1523.64 205.65 1516.32 174.70
  C 1504.61 125.19 1434.04 127.85 1425.33 177.42"
/>
<path stroke="#808080" vector-effect="non-scaling-stroke" d="
  M 1909.32 173.54
  L 1997.75 173.76
  Q 1999.37 173.76 1998.97 172.05
  C 1993.18 147.56 1975.20 134.25 1950.66 135.58
  C 1928.72 136.77 1913.06 151.19 1908.94 173.08
  A 0.39 0.39 0.0 0 0 1909.32 173.54"
/>
</g>
<path fill="#ffffff" d="
  M 0.00 0.00
  L 2308.00 0.00
  L 2308.00 360.00
  L 0.00 360.00
  L 0.00 0.00
  Z
  M 1772.08 158.71
  L 1771.76 228.00
  Q 1771.76 228.26 1771.52 228.38
  C 1728.01 249.24 1670.73 237.47 1655.36 186.56
  Q 1648.82 164.89 1653.92 142.43
  C 1661.71 108.11 1689.94 87.65 1724.27 85.95
  Q 1763.93 84.00 1790.81 112.22
  Q 1791.22 112.65 1791.66 112.25
  L 1826.34 80.26
  Q 1826.72 79.91 1826.37 79.52
  Q 1798.00 48.74 1756.50 41.46
  C 1714.48 34.09 1668.99 41.92 1636.26 70.79
  C 1612.39 91.83 1598.86 120.08 1596.35 151.92
  C 1591.29 216.14 1634.27 272.16 1698.01 282.76
  C 1739.69 289.68 1786.79 280.88 1821.78 255.20
  Q 1822.25 254.86 1822.25 254.28
  L 1822.25 158.75
  Q 1822.25 158.25 1821.75 158.25
  L 1772.54 158.25
  A 0.46 0.46 0.0 0 0 1772.08 158.71
  Z
  M 96.00 216.29
  Q 96.00 215.39 96.89 215.41
  Q 121.38 215.77 145.50 215.25
  C 160.53 214.92 173.93 213.56 186.99 209.50
  C 219.20 199.48 241.95 176.58 246.56 142.67
  C 250.72 112.08 241.44 82.69 216.88 63.82
  C 197.08 48.60 170.62 43.02 145.99 42.99
  Q 93.79 42.94 41.49 43.02
  Q 41.00 43.02 41.00 43.51
  L 41.00 280.52
  Q 41.00 281.04 41.52 281.04
  L 95.38 280.99
  Q 96.00 280.99 96.00 280.37
  L 96.00 216.29
  Z
  M 1301.27 143.43
  A 0.62 0.62 0.0 0 1 1301.89 142.81
  L 1346.42 142.85
  Q 1347.00 142.85 1347.00 142.27
  L 1347.00 102.71
  Q 1347.00 102.24 1346.53 102.24
  L 1302.00 102.26
  A 0.76 0.75 90.0 0 1 1301.25 101.50
  L 1301.25 58.00
  Q 1301.25 57.50 1300.75 57.50
  L 1248.75 57.50
  Q 1248.25 57.50 1248.25 58.00
  L 1248.25 101.63
  Q 1248.25 102.27 1247.62 102.27
  L 1220.52 102.22
  Q 1220.00 102.22 1220.00 102.73
  L 1220.00 142.26
  Q 1220.00 142.78 1220.51 142.78
  L 1247.74 142.74
  A 0.53 0.53 0.0 0 1 1248.27 143.27
  Q 1248.18 180.84 1248.35 218.44
  Q 1248.41 232.45 1251.97 244.01
  C 1263.40 281.18 1306.02 288.79 1339.08 281.08
  Q 1350.76 278.36 1359.46 272.55
  Q 1359.90 272.25 1359.71 271.75
  L 1345.88 235.58
  A 0.61 0.60 61.9 0 0 1344.97 235.30
  C 1329.36 246.18 1303.76 244.50 1301.64 220.81
  Q 1301.29 216.92 1301.28 213.00
  Q 1301.19 178.11 1301.27 143.43
  Z
  M 334.16 121.90
  A 0.23 0.23 0.0 0 1 333.75 121.76
  L 333.75 98.50
  A 0.50 0.50 0.0 0 0 333.25 98.00
  L 283.50 98.00
  Q 283.00 98.00 283.00 98.50
  L 283.00 280.66
  Q 283.00 281.06 283.41 281.06
  L 335.55 280.98
  Q 336.09 280.98 336.09 280.43
  Q 335.73 210.76 336.24 188.75
  Q 336.42 180.80 339.62 171.87
  C 348.28 147.72 372.85 141.67 395.92 144.26
  A 0.75 0.74 3.1 0 0 396.75 143.52
  L 396.75 96.01
  Q 396.75 95.53 396.28 95.53
  C 372.87 95.05 348.74 102.59 334.16 121.90
  Z
  M 413.45 195.74
  C 415.23 237.02 445.40 270.40 484.93 280.20
  C 540.63 294.01 602.94 266.74 612.86 206.01
  C 621.12 155.42 591.61 109.55 540.68 98.35
  C 474.30 83.75 410.32 123.41 413.45 195.74
  Z
  M 1057.98 118.72
  A 0.28 0.28 0.0 0 1 1057.50 118.52
  L 1057.50 98.50
  Q 1057.50 98.00 1057.00 98.00
  L 1007.78 98.00
  Q 1007.00 98.00 1007.00 98.78
  L 1007.00 346.75
  Q 1007.00 347.25 1007.50 347.25
  L 1059.50 347.25
  Q 1060.00 347.25 1060.00 346.75
  L 1060.00 261.82
  A 0.15 0.14 23.1 0 1 1060.25 261.72
  Q 1078.01 280.29 1103.76 283.10
  C 1136.28 286.65 1167.09 275.55 1187.07 250.03
  C 1204.68 227.55 1209.17 197.60 1204.66 170.05
  C 1198.50 132.50 1169.52 102.45 1132.00 96.80
  C 1114.39 94.15 1097.42 95.22 1081.14 102.00
  C 1070.79 106.31 1065.27 111.71 1057.98 118.72
  Z
  M 1571.49 185.05
  C 1568.33 116.74 1502.84 83.52 1441.15 99.20
  C 1410.26 107.05 1383.88 129.98 1374.80 161.01
  C 1357.01 221.80 1397.28 277.77 1459.27 283.19
  Q 1471.69 284.27 1484.04 283.05
  C 1535.64 277.92 1573.94 237.99 1571.49 185.05
  Z
  M 1909.65 204.96
  A 0.37 0.37 0.0 0 1 1910.01 204.50
  L 2047.49 204.50
  Q 2047.97 204.50 2048.03 204.02
  C 2054.62 149.54 2023.62 102.60 1967.50 96.16
  C 1902.21 88.68 1848.71 135.42 1857.02 202.75
  C 1859.72 224.70 1870.26 244.77 1887.14 259.00
  C 1914.12 281.74 1950.94 287.58 1985.05 281.59
  Q 2014.85 276.36 2035.74 254.71
  A 0.54 0.53 46.2 0 0 2035.75 253.97
  L 2008.21 224.03
  Q 2007.80 223.58 2007.36 224.00
  Q 1992.74 237.95 1972.34 240.61
  C 1944.84 244.19 1917.18 234.49 1909.65 204.96
  Z
  M 2135.63 119.42
  A 0.22 0.22 0.0 0 1 2135.25 119.26
  L 2135.25 98.50
  A 0.50 0.50 0.0 0 0 2134.75 98.00
  L 2085.00 98.00
  Q 2084.50 98.00 2084.50 98.50
  L 2084.50 280.00
  Q 2084.50 281.00 2085.50 281.00
  L 2137.04 281.01
  Q 2137.49 281.01 2137.49 280.55
  Q 2137.47 235.18 2137.62 189.82
  C 2137.70 167.23 2146.68 147.38 2170.66 142.35
  C 2182.74 139.81 2197.03 141.42 2206.33 149.56
  C 2216.68 158.63 2218.64 173.20 2218.67 186.32
  Q 2218.77 233.37 2218.75 280.49
  Q 2218.75 280.99 2219.25 280.99
  L 2271.23 281.01
  Q 2271.61 281.01 2271.61 280.63
  Q 2272.12 202.32 2271.54 169.75
  C 2271.32 157.53 2267.98 142.63 2262.25 131.78
  Q 2247.55 103.94 2214.72 97.42
  C 2186.01 91.72 2155.97 98.13 2135.63 119.42
  Z
  M 637.93 275.74
  A 0.34 0.34 0.0 0 0 638.22 276.25
  L 862.40 276.25
  A 0.34 0.34 0.0 0 0 862.68 275.71
  L 738.48 104.66
  A 0.34 0.34 0.0 0 0 737.91 104.69
  L 637.93 275.74
  Z
  M 968.88 276.25
  A 0.33 0.33 0.0 0 0 969.16 275.75
  L 884.40 138.81
  A 0.33 0.33 0.0 0 0 883.91 138.73
  L 814.79 197.66
  A 0.33 0.33 0.0 0 0 814.74 198.11
  L 871.42 276.11
  A 0.33 0.33 0.0 0 0 871.69 276.25
  L 968.88 276.25
  Z"
/>
<path fill="#000000" d="
  M 1771.76 228.00
  L 1772.08 158.71
  A 0.46 0.46 0.0 0 1 1772.54 158.25
  L 1821.75 158.25
  Q 1822.25 158.25 1822.25 158.75
  L 1822.25 254.28
  Q 1822.25 254.86 1821.78 255.20
  C 1786.79 280.88 1739.69 289.68 1698.01 282.76
  C 1634.27 272.16 1591.29 216.14 1596.35 151.92
  C 1598.86 120.08 1612.39 91.83 1636.26 70.79
  C 1668.99 41.92 1714.48 34.09 1756.50 41.46
  Q 1798.00 48.74 1826.37 79.52
  Q 1826.72 79.91 1826.34 80.26
  L 1791.66 112.25
  Q 1791.22 112.65 1790.81 112.22
  Q 1763.93 84.00 1724.27 85.95
  C 1689.94 87.65 1661.71 108.11 1653.92 142.43
  Q 1648.82 164.89 1655.36 186.56
  C 1670.73 237.47 1728.01 249.24 1771.52 228.38
  Q 1771.76 228.26 1771.76 228.00
  Z"
/>
<path fill="#000000" d="
  M 96.00 216.29
  L 96.00 280.37
  Q 96.00 280.99 95.38 280.99
  L 41.52 281.04
  Q 41.00 281.04 41.00 280.52
  L 41.00 43.51
  Q 41.00 43.02 41.49 43.02
  Q 93.79 42.94 145.99 42.99
  C 170.62 43.02 197.08 48.60 216.88 63.82
  C 241.44 82.69 250.72 112.08 246.56 142.67
  C 241.95 176.58 219.20 199.48 186.99 209.50
  C 173.93 213.56 160.53 214.92 145.50 215.25
  Q 121.38 215.77 96.89 215.41
  Q 96.00 215.39 96.00 216.29
  Z
  M 145.75 87.96
  Q 121.31 87.46 96.64 87.86
  Q 96.01 87.87 96.01 88.50
  L 96.00 169.01
  Q 96.00 170.50 97.49 170.50
  Q 121.10 170.60 145.81 170.20
  C 167.59 169.84 186.94 160.98 190.85 137.48
  C 196.05 106.23 175.83 88.58 145.75 87.96
  Z"
/>
<path fill="#000000" d="
  M 1301.27 143.43
  Q 1301.19 178.11 1301.28 213.00
  Q 1301.29 216.92 1301.64 220.81
  C 1303.76 244.50 1329.36 246.18 1344.97 235.30
  A 0.61 0.60 61.9 0 1 1345.88 235.58
  L 1359.71 271.75
  Q 1359.90 272.25 1359.46 272.55
  Q 1350.76 278.36 1339.08 281.08
  C 1306.02 288.79 1263.40 281.18 1251.97 244.01
  Q 1248.41 232.45 1248.35 218.44
  Q 1248.18 180.84 1248.27 143.27
  A 0.53 0.53 0.0 0 0 1247.74 142.74
  L 1220.51 142.78
  Q 1220.00 142.78 1220.00 142.26
  L 1220.00 102.73
  Q 1220.00 102.22 1220.52 102.22
  L 1247.62 102.27
  Q 1248.25 102.27 1248.25 101.63
  L 1248.25 58.00
  Q 1248.25 57.50 1248.75 57.50
  L 1300.75 57.50
  Q 1301.25 57.50 1301.25 58.00
  L 1301.25 101.50
  A 0.76 0.75 90.0 0 0 1302.00 102.26
  L 1346.53 102.24
  Q 1347.00 102.24 1347.00 102.71
  L 1347.00 142.27
  Q 1347.00 142.85 1346.42 142.85
  L 1301.89 142.81
  A 0.62 0.62 0.0 0 0 1301.27 143.43
  Z"
/>
<path fill="#ffffff" d="
  M 145.75 87.96
  C 175.83 88.58 196.05 106.23 190.85 137.48
  C 186.94 160.98 167.59 169.84 145.81 170.20
  Q 121.10 170.60 97.49 170.50
  Q 96.00 170.50 96.00 169.01
  L 96.01 88.50
  Q 96.01 87.87 96.64 87.86
  Q 121.31 87.46 145.75 87.96
  Z"
/>
<path fill="#000000" d="
  M 334.16 121.90
  C 348.74 102.59 372.87 95.05 396.28 95.53
  Q 396.75 95.53 396.75 96.01
  L 396.75 143.52
  A 0.75 0.74 3.1 0 1 395.92 144.26
  C 372.85 141.67 348.28 147.72 339.62 171.87
  Q 336.42 180.80 336.24 188.75
  Q 335.73 210.76 336.09 280.43
  Q 336.09 280.98 335.55 280.98
  L 283.41 281.06
  Q 283.00 281.06 283.00 280.66
  L 283.00 98.50
  Q 283.00 98.00 283.50 98.00
  L 333.25 98.00
  A 0.50 0.50 0.0 0 1 333.75 98.50
  L 333.75 121.76
  A 0.23 0.23 0.0 0 0 334.16 121.90
  Z"
/>
<path fill="#000000" d="
  M 413.45 195.74
  C 410.32 123.41 474.30 83.75 540.68 98.35
  C 591.61 109.55 621.12 155.42 612.86 206.01
  C 602.94 266.74 540.63 294.01 484.93 280.20
  C 445.40 270.40 415.23 237.02 413.45 195.74
  Z
  M 521.03 139.41
  C 450.59 130.58 448.70 243.62 516.40 240.19
  C 573.82 237.27 575.57 146.25 521.03 139.41
  Z"
/>
<path fill="#000000" d="
  M 1057.98 118.72
  C 1065.27 111.71 1070.79 106.31 1081.14 102.00
  C 1097.42 95.22 1114.39 94.15 1132.00 96.80
  C 1169.52 102.45 1198.50 132.50 1204.66 170.05
  C 1209.17 197.60 1204.68 227.55 1187.07 250.03
  C 1167.09 275.55 1136.28 286.65 1103.76 283.10
  Q 1078.01 280.29 1060.25 261.72
  A 0.15 0.14 23.1 0 0 1060.00 261.82
  L 1060.00 346.75
  Q 1060.00 347.25 1059.50 347.25
  L 1007.50 347.25
  Q 1007.00 347.25 1007.00 346.75
  L 1007.00 98.78
  Q 1007.00 98.00 1007.78 98.00
  L 1057.00 98.00
  Q 1057.50 98.00 1057.50 98.50
  L 1057.50 118.52
  A 0.28 0.28 0.0 0 0 1057.98 118.72
  Z
  M 1111.99 239.94
  C 1167.81 233.25 1165.97 140.97 1108.00 138.89
  C 1040.59 136.47 1044.15 248.07 1111.99 239.94
  Z"
/>
<path fill="#000000" d="
  M 1441.15 99.20
  C 1502.84 83.52 1568.33 116.74 1571.49 185.05
  C 1573.94 237.99 1535.64 277.92 1484.04 283.05
  Q 1471.69 284.27 1459.27 283.19
  C 1397.28 277.77 1357.01 221.80 1374.80 161.01
  C 1383.88 129.98 1410.26 107.05 1441.15 99.20
  Z
  M 1425.33 177.42
  C 1419.72 209.29 1436.97 240.89 1472.44 240.28
  C 1507.57 239.66 1523.64 205.65 1516.32 174.70
  C 1504.61 125.19 1434.04 127.85 1425.33 177.42
  Z"
/>
<path fill="#000000" d="
  M 1909.65 204.96
  C 1917.18 234.49 1944.84 244.19 1972.34 240.61
  Q 1992.74 237.95 2007.36 224.00
  Q 2007.80 223.58 2008.21 224.03
  L 2035.75 253.97
  A 0.54 0.53 46.2 0 1 2035.74 254.71
  Q 2014.85 276.36 1985.05 281.59
  C 1950.94 287.58 1914.12 281.74 1887.14 259.00
  C 1870.26 244.77 1859.72 224.70 1857.02 202.75
  C 1848.71 135.42 1902.21 88.68 1967.50 96.16
  C 2023.62 102.60 2054.62 149.54 2048.03 204.02
  Q 2047.97 204.50 2047.49 204.50
  L 1910.01 204.50
  A 0.37 0.37 0.0 0 0 1909.65 204.96
  Z
  M 1909.32 173.54
  L 1997.75 173.76
  Q 1999.37 173.76 1998.97 172.05
  C 1993.18 147.56 1975.20 134.25 1950.66 135.58
  C 1928.72 136.77 1913.06 151.19 1908.94 173.08
  A 0.39 0.39 0.0 0 0 1909.32 173.54
  Z"
/>
<path fill="#000000" d="
  M 2135.63 119.42
  C 2155.97 98.13 2186.01 91.72 2214.72 97.42
  Q 2247.55 103.94 2262.25 131.78
  C 2267.98 142.63 2271.32 157.53 2271.54 169.75
  Q 2272.12 202.32 2271.61 280.63
  Q 2271.61 281.01 2271.23 281.01
  L 2219.25 280.99
  Q 2218.75 280.99 2218.75 280.49
  Q 2218.77 233.37 2218.67 186.32
  C 2218.64 173.20 2216.68 158.63 2206.33 149.56
  C 2197.03 141.42 2182.74 139.81 2170.66 142.35
  C 2146.68 147.38 2137.70 167.23 2137.62 189.82
  Q 2137.47 235.18 2137.49 280.55
  Q 2137.49 281.01 2137.04 281.01
  L 2085.50 281.00
  Q 2084.50 281.00 2084.50 280.00
  L 2084.50 98.50
  Q 2084.50 98.00 2085.00 98.00
  L 2134.75 98.00
  A 0.50 0.50 0.0 0 1 2135.25 98.50
  L 2135.25 119.26
  A 0.22 0.22 0.0 0 0 2135.63 119.42
  Z"
/>
<path fill="#000000" d="
  M 637.93 275.74
  L 737.91 104.69
  A 0.34 0.34 0.0 0 1 738.48 104.66
  L 862.68 275.71
  A 0.34 0.34 0.0 0 1 862.40 276.25
  L 638.22 276.25
  A 0.34 0.34 0.0 0 1 637.93 275.74
  Z"
/>
<path fill="#ffffff" d="
  M 1997.75 173.76
  L 1909.32 173.54
  A 0.39 0.39 0.0 0 1 1908.94 173.08
  C 1913.06 151.19 1928.72 136.77 1950.66 135.58
  C 1975.20 134.25 1993.18 147.56 1998.97 172.05
  Q 1999.37 173.76 1997.75 173.76
  Z"
/>
<path fill="#000000" d="
  M 968.88 276.25
  L 871.69 276.25
  A 0.33 0.33 0.0 0 1 871.42 276.11
  L 814.74 198.11
  A 0.33 0.33 0.0 0 1 814.79 197.66
  L 883.91 138.73
  A 0.33 0.33 0.0 0 1 884.40 138.81
  L 969.16 275.75
  A 0.33 0.33 0.0 0 1 968.88 276.25
  Z"
/>
<path fill="#ffffff" d="
  M 516.40 240.19
  C 448.70 243.62 450.59 130.58 521.03 139.41
  C 575.57 146.25 573.82 237.27 516.40 240.19
  Z"
/>
<path fill="#ffffff" d="
  M 1108.00 138.89
  C 1165.97 140.97 1167.81 233.25 1111.99 239.94
  C 1044.15 248.07 1040.59 136.47 1108.00 138.89
  Z"
/>
<path fill="#ffffff" d="
  M 1425.33 177.42
  C 1434.04 127.85 1504.61 125.19 1516.32 174.70
  C 1523.64 205.65 1507.57 239.66 1472.44 240.28
  C 1436.97 240.89 1419.72 209.29 1425.33 177.42
  Z"
/>
</svg>
