<?xml version="1.0" encoding="UTF-8" standalone="no"?> <!-- Created with Vectornator for iOS (http://vectornator.io/) --><!DOCTYPE svg PUBLIC "-//W3C//DTD SVG 1.1//EN" "http://www.w3.org/Graphics/SVG/1.1/DTD/svg11.dtd">
<svg width="100%" version="1.1" height="100%" xmlns:xlink="http://www.w3.org/1999/xlink" xmlns="http://www.w3.org/2000/svg" style="fill-rule:nonzero;clip-rule:evenodd;stroke-linecap:round;stroke-linejoin:round;" viewBox="0 0 2764 450" xml:space="preserve" xmlns:vectornator="http://vectornator.io">
<metadata>
<vectornator:setting value="false" key="WDOutlineMode"/>
<vectornator:setting key="UndoHistoryDisabled" value="true"/>
<vectornator:setting key="WDUnits" value="Points"/>
<vectornator:setting key="WDDynamicGuides" value="false"/>
<vectornator:setting key="WDIsolateActiveLayer" value="false"/>
<vectornator:setting value="true" key="WDGuidesVisible"/>
<vectornator:setting key="VNSnapToGuides" value="true"/>
<vectornator:setting key="WDCMYKEnabledKey" value="false"/>
<vectornator:setting key="WDRulersVisible" value="true"/>
<vectornator:setting key="IsTimeLapseWatermarkDisabled" value="false"/>
<vectornator:setting key="WDSnapToPoints" value="false"/>
<vectornator:setting key="WDSnapToEdges" value="false"/>
<vectornator:setting key="VNDimensionsVisible" value="true"/>
<vectornator:setting value="false" key="WDDisplayWhiteBackground"/>
<vectornator:setting key="WDSnapToGrid" value="false"/>
</metadata>
<defs/>
<g id="Untitled コピー" vectornator:layerName="Untitled コピー">
<g opacity="1">
<path d="M2073.27+275.81C2044.79+290.9+2003.79+293.85+1973.48+282C1922.11+261.89+1901.09+206.74+1914.63+155.37C1930.67+94.51+1994.95+70.85+2051.2+87.61C2069.68+93.11+2086.25+104.61+2099.54+118.44C2099.77+118.673+2100+118.68+2100.24+118.46L2147.68+74.72C2147.83+74.5733+2147.84+74.42+2147.7+74.26C2111.04+32.25+2056.96+16.77+2002.73+18.91C1911.97+22.49+1838.31+85.37+1835.02+179.23C1833.26+229.66+1851.63+275.18+1888.14+308.75C1955.31+370.5+2070.76+363.95+2141.59+312.05C2141.86+311.85+2142+311.583+2142+311.25L2142+181.25C2142+180.917+2141.83+180.75+2141.5+180.75L2074.06+180.75C2073.85+180.75+2073.75+180.853+2073.75+181.06L2073.75+275.02C2073.75+275.38+2073.59+275.643+2073.27+275.81" fill="none" stroke-linecap="butt" stroke-linejoin="miter" stroke="#808080" opacity="1" stroke-width="2"/>
<path stroke="#808080" d="M95.65+258.31C96.8767+258.163+98.3267+258.1+100+258.12C126.26+258.353+152.51+258.113+178.75+257.4C183.15+257.28+188.02+256.27+192.61+255.83C196.017+255.51+199.057+254.99+201.73+254.27C208.69+252.39+216.4+250.62+222.59+248.52C254.54+237.67+280.41+215.64+292.43+183.86C296.89+172.07+298.73+159.04+299.49+146.22C299.683+142.98+299.63+139.33+299.33+135.27C298.53+124.35+297.73+113.5+293.93+103.1C292.13+98.16+290.47+93.06+288.13+88.56C268.03+49.84+229.43+30.51+187.31+26.03C178.7+25.12+171.16+24.28+163+24.27C115.687+24.2433+68.3433+24.24+20.97+24.26C20.0201+24.26+19.25+25.0301+19.25+25.98L19.25+345.47C19.25+346.591+20.1589+347.5+21.28+347.5L92.41+347.5C93.4262+347.5+94.25+346.676+94.25+345.66L94.25+259.89C94.2493+259.085+94.8506+258.406+95.65+258.31" stroke-linecap="butt" stroke-linejoin="miter" fill="none" stroke-width="2" opacity="1"/>
<path stroke-linejoin="miter" stroke-width="2" stroke-linecap="butt" fill="none" stroke="#808080" d="M1657.25+104.5L1620+104.5C1619.67+104.5+1619.5+104.667+1619.5+105L1619.5+159.5C1619.5+159.776+1619.72+160+1620+160L1657.24+160C1657.58+160+1657.75+160.17+1657.75+160.51C1657.74+193.003+1657.75+225.497+1657.77+257.99C1657.79+278.96+1660.51+300.65+1673.1+318.18C1684.83+334.52+1702.99+344.48+1722.58+348.4C1751.2+354.11+1783.85+351.8+1809.05+335.77C1809.22+335.668+1809.3+335.454+1809.23+335.26L1790.16+285.38C1790.11+285.236+1789.99+285.126+1789.84+285.081C1789.69+285.037+1789.53+285.062+1789.4+285.15C1771.66+297.33+1739.18+299.64+1731.59+273.58C1729.95+267.95+1729.78+261.01+1729.78+254.75C1729.76+223.297+1729.75+191.873+1729.75+160.48C1729.75+160.215+1729.96+160+1730.23+160L1791.25+160C1791.53+160+1791.75+159.776+1791.75+159.5L1791.75+105C1791.75+104.724+1791.53+104.5+1791.25+104.5L1730.75+104.5C1730.2+104.5+1729.75+104.052+1729.75+103.5L1729.75+44.6C1729.75+44.2+1729.55+44+1729.16+44L1658.25+44C1657.97+44+1657.75+44.2239+1657.75+44.5L1657.75+104C1657.75+104.333+1657.58+104.5+1657.25+104.5" opacity="1"/>
<path d="M416.74+130.88L416.76+99.75C416.76+99.3358+416.42+99+416+99L348.5+99C348.16+99+347.99+99.17+347.99+99.51L348+346.97C348+347.323+348.177+347.5+348.53+347.5L419.21+347.5C419.597+347.5+419.79+347.303+419.79+346.91C419.67+309.223+419.71+271.54+419.91+233.86C420.03+211.65+422.95+190.06+441.45+175.22C458.71+161.37+480.59+159.11+501.54+161.85C501.695+161.87+501.851+161.822+501.968+161.719C502.085+161.615+502.151+161.466+502.15+161.31L501.94+95.95C501.94+95.71+501.82+95.59+501.58+95.59C468.96+94.93+437.58+105.12+417.09+131.01C417.042+131.08+416.954+131.108+416.873+131.078C416.793+131.048+416.738+130.967+416.74+130.88" fill="none" stroke-linejoin="miter" opacity="1" stroke-width="2" stroke-linecap="butt" stroke="#808080"/>
<path d="M695.31+347.53C740.62+338.3+777.91+305.74+791.78+261.74C795.4+250.27+796.19+238.93+797.19+227.06C797.66+221.55+796.87+216.32+796.47+210.81C794.2+179.78+781.31+151.89+758.7+131.04C720.3+95.65+663.67+87.72+614.71+101.92C575.09+113.42+542.91+144+530.46+183.42C524.68+201.7+523.65+219.52+525.39+239.1C526.04+246.5+527.97+255.69+530.25+262.45C540.857+293.923+560.87+317.743+590.29+333.91C622.08+351.38+659.99+354.72+695.31+347.53" stroke-linejoin="miter" stroke-linecap="butt" opacity="1" stroke="#808080" fill="none" stroke-width="2"/>
<path d="M2261.14+243.97C2261.23+243.832+2261.38+243.749+2261.53+243.75L2446.33+243.75C2447.36+243.749+2448.22+242.988+2448.36+241.97C2455.78+185.2+2431.16+129+2376.39+106.41C2362.2+100.557+2348.32+97.0267+2334.73+95.82C2322.22+94.7133+2308.51+95.3733+2293.59+97.8C2243.47+105.97+2198.59+145.53+2190.55+197.01C2190.23+199.04+2189.49+200.96+2189.33+202.69C2188.81+208.27+2188.36+213.857+2187.99+219.45C2187.67+224.16+2188.34+228.87+2188.58+233.66C2189.2+246.09+2191.84+257.53+2195.97+269.25C2207.81+302.79+2238.16+329.5+2270.24+341.04C2272.82+341.967+2278.4+343.69+2286.99+346.21C2305.18+351.55+2325.8+351.52+2344.25+350.46C2376.18+348.63+2409.49+336.17+2431.25+311.97C2431.78+311.383+2431.78+310.797+2431.24+310.21L2394.38+270.16C2394.22+269.984+2393.99+269.88+2393.75+269.873C2393.51+269.865+2393.27+269.954+2393.1+270.12C2385.15+277.713+2376.2+283.47+2366.25+287.39C2348.74+294.29+2325.89+294.95+2308.02+290.74C2283.65+285+2267.92+269.83+2260.85+245.23C2260.74+244.87+2260.84+244.45+2261.14+243.97" stroke="#808080" fill="none" stroke-linejoin="miter" stroke-width="2" stroke-linecap="butt" opacity="1"/>
<path d="M1402.7+321.3C1418.27+337.97+1438.23+347.09+1460+349.99C1518.38+357.77+1575.4+327.05+1593.8+269.5C1601.54+245.29+1602.77+218.63+1598.06+193.48C1589.69+148.79+1557.66+113.1+1514.21+100.46C1476.42+89.47+1425.99+94.74+1399.56+127.65C1399.47+127.748+1399.34+127.784+1399.21+127.74C1399.09+127.696+1399+127.581+1399+127.45L1399+99.5C1399+99.1667+1398.83+99+1398.5+99L1330.75+99C1330.47+99+1330.25+99.2239+1330.25+99.5L1330.25+436.75C1330.25+437.083+1330.42+437.25+1330.75+437.25L1402.5+437.26C1402.52+437.26+1402.51+437.22+1402.48+437.14C1402.47+437.107+1402.45+437.073+1402.42+437.04C1402.31+436.933+1402.25+436.837+1402.25+436.75L1402.25+321.48C1402.25+321.04+1402.4+320.98+1402.7+321.3" stroke="#808080" stroke-linejoin="miter" fill="none" stroke-linecap="butt" stroke-width="2" opacity="1"/>
<path fill="none" stroke-linecap="butt" stroke-width="2" d="M2566.65+128.7C2566.62+128.723+2566.59+128.729+2566.56+128.717C2566.52+128.704+2566.5+128.674+2566.5+128.64L2566.5+99.5C2566.5+99.1667+2566.33+99+2566+99L2498.78+99C2498.26+99+2498+99.26+2498+99.78L2498+347C2498+347.34+2498.17+347.51+2498.5+347.51L2569.2+347.5C2569.55+347.5+2569.73+347.323+2569.73+346.97C2569.72+308.337+2569.81+269.7+2570+231.06C2570.12+205.94+2573.17+179.34+2597.59+165.57C2611.93+157.48+2631.18+155.59+2647+159.98C2662.91+164.39+2672.46+176.13+2676.99+191.82C2678.88+198.347+2679.83+204.493+2679.85+210.26C2680.02+255.813+2680.06+301.387+2679.97+346.98C2679.97+347.333+2680.15+347.51+2680.5+347.51L2751.36+347.5C2751.79+347.5+2752.01+347.283+2752.01+346.85C2752.04+299.17+2751.97+251.49+2751.78+203.81C2751.73+192.723+2750.71+182.04+2748.71+171.76C2737.68+115.11+2687.63+90.51+2633.96+96.3C2608.44+99.06+2584.27+109.35+2566.65+128.7" stroke-linejoin="miter" opacity="1" stroke="#808080"/>
<path stroke-linecap="butt" stroke-width="2" stroke="#808080" opacity="1" fill="none" stroke-linejoin="miter" d="M1134.57+341C1134.69+340.999+1134.79+340.934+1134.84+340.831C1134.9+340.728+1134.89+340.604+1134.82+340.51L965.78+107.68C965.718+107.595+965.617+107.547+965.512+107.553C965.407+107.559+965.312+107.618+965.26+107.71L829.43+340.53C829.372+340.626+829.371+340.747+829.427+340.844C829.483+340.942+829.587+341.002+829.7+341L1134.57+341"/>
<path stroke-linecap="butt" stroke-linejoin="miter" stroke="#808080" fill="none" d="M1069.52+235.02L1146.43+340.77C1146.67+341.09+1146.99+341.25+1147.39+341.25L1279.23+341.25C1279.63+341.25+1279.73+341.08+1279.52+340.74L1164.08+154.16C1163.93+153.92+1163.76+153.89+1163.55+154.07L1069.62+234.15C1069.32+234.41+1069.29+234.7+1069.52+235.02" opacity="1" stroke-width="2"/>
<path d="M178.7+87.25C170.77+85.61+162.8+85.49+154.75+85.44C134.817+85.3067+115.083+85.2333+95.55+85.22C94.832+85.22+94.25+85.802+94.25+86.52L94.25+195.7C94.25+196.679+95.0408+197.474+96.02+197.48C117.947+197.533+139.833+197.52+161.68+197.44C176.78+197.39+198.11+192.37+209.18+180.33C219.473+169.13+224.33+155.36+223.75+139.02C223.11+121.147+216.223+107.16+203.09+97.06C198.47+93.51+192.92+91.41+187.39+89.25C184.55+88.14+181.72+87.87+178.7+87.25" opacity="1" fill="none" stroke-linecap="butt" stroke-linejoin="miter" stroke="#808080" stroke-width="2"/>
<path stroke-linejoin="miter" opacity="1" stroke-linecap="butt" stroke-width="2" d="M597.92+212.13C596.8+216.96+597.02+229.18+597.62+231.93C598.63+236.53+599.02+241.48+600.18+245.57C606.92+269.48+625.48+287.12+649.9+291.47C656.73+292.69+667.04+292.46+673.53+291.24C700.89+286.12+719.92+263.54+723.49+236.23C727.21+207.74+719.32+176.64+692.25+162.2C679.223+155.247+665.277+152.98+650.41+155.4C625.95+159.387+609.62+173.373+601.42+197.36C600.967+198.687+600.503+200.013+600.03+201.34C598.82+204.72+598.75+208.57+597.92+212.13" stroke="#808080" fill="none"/>
<path stroke-width="2" d="M2333.72+150.95C2299.89+145.73+2269.7+160.9+2260.7+195.49C2260.21+197.37+2259.98+198.907+2260.01+200.1C2260.04+201.2+2260.6+201.75+2261.7+201.75L2379.78+201.75C2380.31+201.75+2380.82+201.513+2381.16+201.103C2381.5+200.694+2381.64+200.154+2381.54+199.63C2376.94+175.24+2358.85+154.84+2333.72+150.95" opacity="1" fill="none" stroke="#808080" stroke-linejoin="miter" stroke-linecap="butt"/>
<path stroke-linejoin="miter" stroke-linecap="butt" stroke="#808080" fill="none" d="M1510.84+271.93C1529.07+250.98+1532.28+220.43+1523.03+194.5C1516.69+176.74+1501.01+162.18+1482.93+156.84C1474.64+154.387+1465.24+153.847+1454.74+155.22C1435.75+157.69+1418.89+169.14+1409.83+186.13C1400.93+202.81+1399.58+224.44+1403.52+242.74C1411.03+277.59+1440.96+295.84+1475.46+291.19C1489.04+289.36+1501.74+282.39+1510.84+271.93" stroke-width="2" opacity="1"/>
</g>
<path fill="#ffffff" d="M2073.75+275.02L2073.75+181.06C2073.75+180.853+2073.85+180.75+2074.06+180.75L2141.5+180.75C2141.83+180.75+2142+180.917+2142+181.25L2142+311.25C2142+311.583+2141.86+311.85+2141.59+312.05C2070.76+363.95+1955.31+370.5+1888.14+308.75C1851.63+275.18+1833.26+229.66+1835.02+179.23C1838.31+85.37+1911.97+22.49+2002.73+18.91C2056.96+16.77+2111.04+32.25+2147.7+74.26C2147.84+74.42+2147.83+74.5733+2147.68+74.72L2100.24+118.46C2100+118.68+2099.77+118.673+2099.54+118.44C2086.25+104.61+2069.68+93.11+2051.2+87.61C1994.95+70.85+1930.67+94.51+1914.63+155.37C1901.09+206.74+1922.11+261.89+1973.48+282C2003.79+293.85+2044.79+290.9+2073.27+275.81C2073.59+275.643+2073.75+275.38+2073.75+275.02Z" opacity="1"/>
<path d="M95.65+258.31C94.8506+258.406+94.2493+259.085+94.25+259.89L94.25+345.66C94.25+346.676+93.4262+347.5+92.41+347.5L21.28+347.5C20.1589+347.5+19.25+346.591+19.25+345.47L19.25+25.98C19.25+25.0301+20.0201+24.26+20.97+24.26C68.3433+24.24+115.687+24.2433+163+24.27C171.16+24.28+178.7+25.12+187.31+26.03C229.43+30.51+268.03+49.84+288.13+88.56C290.47+93.06+292.13+98.16+293.93+103.1C297.73+113.5+298.53+124.35+299.33+135.27C299.63+139.33+299.683+142.98+299.49+146.22C298.73+159.04+296.89+172.07+292.43+183.86C280.41+215.64+254.54+237.67+222.59+248.52C216.4+250.62+208.69+252.39+201.73+254.27C199.057+254.99+196.017+255.51+192.61+255.83C188.02+256.27+183.15+257.28+178.75+257.4C152.51+258.113+126.26+258.353+100+258.12C98.3267+258.1+96.8767+258.163+95.65+258.31ZM178.7+87.25C170.77+85.61+162.8+85.49+154.75+85.44C134.817+85.3067+115.083+85.2333+95.55+85.22C94.832+85.22+94.25+85.802+94.25+86.52L94.25+195.7C94.25+196.679+95.0408+197.474+96.02+197.48C117.947+197.533+139.833+197.52+161.68+197.44C176.78+197.39+198.11+192.37+209.18+180.33C219.473+169.13+224.33+155.36+223.75+139.02C223.11+121.147+216.223+107.16+203.09+97.06C198.47+93.51+192.92+91.41+187.39+89.25C184.55+88.14+181.72+87.87+178.7+87.25Z" fill="#ffffff" opacity="1"/>
<path opacity="1" fill="#ffffff" d="M1657.75+104L1657.75+44.5C1657.75+44.2239+1657.97+44+1658.25+44L1729.16+44C1729.55+44+1729.75+44.2+1729.75+44.6L1729.75+103.5C1729.75+104.052+1730.2+104.5+1730.75+104.5L1791.25+104.5C1791.53+104.5+1791.75+104.724+1791.75+105L1791.75+159.5C1791.75+159.776+1791.53+160+1791.25+160L1730.23+160C1729.96+160+1729.75+160.215+1729.75+160.48C1729.75+191.873+1729.76+223.297+1729.78+254.75C1729.78+261.01+1729.95+267.95+1731.59+273.58C1739.18+299.64+1771.66+297.33+1789.4+285.15C1789.53+285.062+1789.69+285.037+1789.84+285.081C1789.99+285.126+1790.11+285.236+1790.16+285.38L1809.23+335.26C1809.3+335.454+1809.22+335.668+1809.05+335.77C1783.85+351.8+1751.2+354.11+1722.58+348.4C1702.99+344.48+1684.83+334.52+1673.1+318.18C1660.51+300.65+1657.79+278.96+1657.77+257.99C1657.75+225.497+1657.74+193.003+1657.75+160.51C1657.75+160.17+1657.58+160+1657.24+160L1620+160C1619.72+160+1619.5+159.776+1619.5+159.5L1619.5+105C1619.5+104.667+1619.67+104.5+1620+104.5L1657.25+104.5C1657.58+104.5+1657.75+104.333+1657.75+104Z"/>
<path d="M416.74+130.88C416.738+130.967+416.793+131.048+416.873+131.078C416.954+131.108+417.042+131.08+417.09+131.01C437.58+105.12+468.96+94.93+501.58+95.59C501.82+95.59+501.94+95.71+501.94+95.95L502.15+161.31C502.151+161.466+502.085+161.615+501.968+161.719C501.851+161.822+501.695+161.87+501.54+161.85C480.59+159.11+458.71+161.37+441.45+175.22C422.95+190.06+420.03+211.65+419.91+233.86C419.71+271.54+419.67+309.223+419.79+346.91C419.79+347.303+419.597+347.5+419.21+347.5L348.53+347.5C348.177+347.5+348+347.323+348+346.97L347.99+99.51C347.99+99.17+348.16+99+348.5+99L416+99C416.42+99+416.76+99.3358+416.76+99.75L416.74+130.88Z" fill="#ffffff" opacity="1"/>
<path fill="#ffffff" opacity="1" d="M791.78+261.74C777.91+305.74+740.62+338.3+695.31+347.53C659.99+354.72+622.08+351.38+590.29+333.91C560.87+317.743+540.857+293.923+530.25+262.45C527.97+255.69+526.04+246.5+525.39+239.1C523.65+219.52+524.68+201.7+530.46+183.42C542.91+144+575.09+113.42+614.71+101.92C663.67+87.72+720.3+95.65+758.7+131.04C781.31+151.89+794.2+179.78+796.47+210.81C796.87+216.32+797.66+221.55+797.19+227.06C796.19+238.93+795.4+250.27+791.78+261.74ZM597.92+212.13C596.8+216.96+597.02+229.18+597.62+231.93C598.63+236.53+599.02+241.48+600.18+245.57C606.92+269.48+625.48+287.12+649.9+291.47C656.73+292.69+667.04+292.46+673.53+291.24C700.89+286.12+719.92+263.54+723.49+236.23C727.21+207.74+719.32+176.64+692.25+162.2C679.223+155.247+665.277+152.98+650.41+155.4C625.95+159.387+609.62+173.373+601.42+197.36C600.967+198.687+600.503+200.013+600.03+201.34C598.82+204.72+598.75+208.57+597.92+212.13Z"/>
<path opacity="1" d="M2261.14+243.97C2260.84+244.45+2260.74+244.87+2260.85+245.23C2267.92+269.83+2283.65+285+2308.02+290.74C2325.89+294.95+2348.74+294.29+2366.25+287.39C2376.2+283.47+2385.15+277.713+2393.1+270.12C2393.27+269.954+2393.51+269.865+2393.75+269.873C2393.99+269.88+2394.22+269.984+2394.38+270.16L2431.24+310.21C2431.78+310.797+2431.78+311.383+2431.25+311.97C2409.49+336.17+2376.18+348.63+2344.25+350.46C2325.8+351.52+2305.18+351.55+2286.99+346.21C2278.4+343.69+2272.82+341.967+2270.24+341.04C2238.16+329.5+2207.81+302.79+2195.97+269.25C2191.84+257.53+2189.2+246.09+2188.58+233.66C2188.34+228.87+2187.67+224.16+2187.99+219.45C2188.36+213.857+2188.81+208.27+2189.33+202.69C2189.49+200.96+2190.23+199.04+2190.55+197.01C2198.59+145.53+2243.47+105.97+2293.59+97.8C2308.51+95.3733+2322.22+94.7133+2334.73+95.82C2348.32+97.0267+2362.2+100.557+2376.39+106.41C2431.16+129+2455.78+185.2+2448.36+241.97C2448.22+242.988+2447.36+243.749+2446.33+243.75L2261.53+243.75C2261.38+243.749+2261.23+243.832+2261.14+243.97ZM2333.72+150.95C2299.89+145.73+2269.7+160.9+2260.7+195.49C2260.21+197.37+2259.98+198.907+2260.01+200.1C2260.04+201.2+2260.6+201.75+2261.7+201.75L2379.78+201.75C2380.31+201.75+2380.82+201.513+2381.16+201.103C2381.5+200.694+2381.64+200.154+2381.54+199.63C2376.94+175.24+2358.85+154.84+2333.72+150.95Z" fill="#ffffff"/>
<path opacity="1" fill="#ffffff" d="M1402.25+321.48L1402.25+436.75C1402.25+436.837+1402.31+436.933+1402.42+437.04C1402.45+437.073+1402.47+437.107+1402.48+437.14C1402.51+437.22+1402.52+437.26+1402.5+437.26L1330.75+437.25C1330.42+437.25+1330.25+437.083+1330.25+436.75L1330.25+99.5C1330.25+99.2239+1330.47+99+1330.75+99L1398.5+99C1398.83+99+1399+99.1667+1399+99.5L1399+127.45C1399+127.581+1399.09+127.696+1399.21+127.74C1399.34+127.784+1399.47+127.748+1399.56+127.65C1425.99+94.74+1476.42+89.47+1514.21+100.46C1557.66+113.1+1589.69+148.79+1598.06+193.48C1602.77+218.63+1601.54+245.29+1593.8+269.5C1575.4+327.05+1518.38+357.77+1460+349.99C1438.23+347.09+1418.27+337.97+1402.7+321.3C1402.4+320.98+1402.25+321.04+1402.25+321.48ZM1510.84+271.93C1529.07+250.98+1532.28+220.43+1523.03+194.5C1516.69+176.74+1501.01+162.18+1482.93+156.84C1474.64+154.387+1465.24+153.847+1454.74+155.22C1435.75+157.69+1418.89+169.14+1409.83+186.13C1400.93+202.81+1399.58+224.44+1403.52+242.74C1411.03+277.59+1440.96+295.84+1475.46+291.19C1489.04+289.36+1501.74+282.39+1510.84+271.93Z"/>
<path fill="#ffffff" d="M2566.65+128.7C2584.27+109.35+2608.44+99.06+2633.96+96.3C2687.63+90.51+2737.68+115.11+2748.71+171.76C2750.71+182.04+2751.73+192.723+2751.78+203.81C2751.97+251.49+2752.04+299.17+2752.01+346.85C2752.01+347.283+2751.79+347.5+2751.36+347.5L2680.5+347.51C2680.15+347.51+2679.97+347.333+2679.97+346.98C2680.06+301.387+2680.02+255.813+2679.85+210.26C2679.83+204.493+2678.88+198.347+2676.99+191.82C2672.46+176.13+2662.91+164.39+2647+159.98C2631.18+155.59+2611.93+157.48+2597.59+165.57C2573.17+179.34+2570.12+205.94+2570+231.06C2569.81+269.7+2569.72+308.337+2569.73+346.97C2569.73+347.323+2569.55+347.5+2569.2+347.5L2498.5+347.51C2498.17+347.51+2498+347.34+2498+347L2498+99.78C2498+99.26+2498.26+99+2498.78+99L2566+99C2566.33+99+2566.5+99.1667+2566.5+99.5L2566.5+128.64C2566.5+128.674+2566.52+128.704+2566.56+128.717C2566.59+128.729+2566.62+128.723+2566.65+128.7Z" opacity="1"/>
<path d="M1134.57+341L829.7+341C829.587+341.002+829.483+340.942+829.427+340.844C829.371+340.747+829.372+340.626+829.43+340.53L965.26+107.71C965.312+107.618+965.407+107.559+965.512+107.553C965.617+107.547+965.718+107.595+965.78+107.68L1134.82+340.51C1134.89+340.604+1134.9+340.728+1134.84+340.831C1134.79+340.934+1134.69+340.999+1134.57+341Z" fill="#ffffff" opacity="1"/>
<path opacity="1" fill="#ffffff" d="M1146.43+340.77L1069.52+235.02C1069.29+234.7+1069.32+234.41+1069.62+234.15L1163.55+154.07C1163.76+153.89+1163.93+153.92+1164.08+154.16L1279.52+340.74C1279.73+341.08+1279.63+341.25+1279.23+341.25L1147.39+341.25C1146.99+341.25+1146.67+341.09+1146.43+340.77Z"/>
</g>
</svg>
