<?xml version="1.0" encoding="UTF-8" standalone="no"?> <!-- Created with Vectornator for iOS (http://vectornator.io/) --><!DOCTYPE svg PUBLIC "-//W3C//DTD SVG 1.1//EN" "http://www.w3.org/Graphics/SVG/1.1/DTD/svg11.dtd">
<svg viewBox="0 0 3326 630" version="1.1" style="fill-rule:nonzero;clip-rule:evenodd;stroke-linecap:round;stroke-linejoin:round;" height="100%" xmlns="http://www.w3.org/2000/svg" xmlns:xlink="http://www.w3.org/1999/xlink" width="100%" xml:space="preserve" xmlns:vectornator="http://vectornator.io">
<metadata>
<vectornator:setting key="WDSnapToEdges" value="false"/>
<vectornator:setting key="WDSnapToGrid" value="false"/>
<vectornator:setting key="WDRulersVisible" value="true"/>
<vectornator:setting key="WDSnapToPoints" value="false"/>
<vectornator:setting key="WDOutlineMode" value="false"/>
<vectornator:setting key="WDIsolateActiveLayer" value="false"/>
<vectornator:setting key="WDCMYKEnabledKey" value="false"/>
<vectornator:setting value="true" key="VNDimensionsVisible"/>
<vectornator:setting key="WDDynamicGuides" value="false"/>
<vectornator:setting key="IsTimeLapseWatermarkDisabled" value="false"/>
<vectornator:setting key="VNSnapToGuides" value="true"/>
<vectornator:setting key="WDGuidesVisible" value="true"/>
<vectornator:setting key="WDDisplayWhiteBackground" value="false"/>
<vectornator:setting key="UndoHistoryDisabled" value="true"/>
<vectornator:setting key="WDUnits" value="Points"/>
</metadata>
<defs/>
<g vectornator:layerName="Untitled" id="Untitled">
<g opacity="1">
<path fill="none" opacity="1" stroke-width="2" d="M2484.99+310.99C2485.33+310.99+2485.5+311.16+2485.5+311.5L2485.5+391.48C2485.5+391.787+2485.38+392.04+2485.15+392.24C2474.07+401.507+2461.66+407.647+2447.92+410.66C2430.14+414.56+2411.84+415.58+2393.01+413.72C2344.19+408.89+2315.18+374.11+2305.05+328.48C2297.81+295.89+2298.09+262.8+2298.66+229.44C2299.49+181.44+2310.13+117.44+2361.53+96.67C2381.07+88.78+2403.14+88.26+2423.99+92.22C2463.35+99.69+2482.3+128.81+2487.78+166.36C2487.84+166.78+2488.08+166.99+2488.51+166.99L2581.25+167.01C2581.52+167.01+2581.63+166.88+2581.59+166.62C2575.4+119.61+2558.08+73.44+2517.28+44.98C2497.56+31.2267+2475.72+22.0633+2451.75+17.49C2415.12+10.51+2375.88+9.81+2339.7+19.2C2243.17+44.26+2203.16+134.98+2201.02+226.5C2200.55+246.2+2200.61+265.093+2201.2+283.18C2203.04+339.96+2221.32+398.24+2262.64+439.46C2294.81+471.56+2340.51+488.44+2384.75+491.23C2421.49+493.543+2457.72+489.62+2493.43+479.46C2527.09+469.89+2558.13+453.35+2581.43+426.84C2581.64+426.6+2581.75+426.32+2581.75+426L2581.75+240.75C2581.75+240.417+2581.58+240.25+2581.25+240.25L2398.5+240.25C2398.22+240.25+2398+240.474+2398+240.75L2398+310.51C2398+310.85+2398.17+311.02+2398.51+311.02L2484.99+310.99" stroke-linecap="butt" stroke="#808080" stroke-linejoin="miter"/>
<path stroke="#808080" d="M124.86+320.92C165.6+321.1+193.293+321.097+207.94+320.91C221.727+320.737+234.473+319.977+246.18+318.63C311.2+311.15+371.12+272.93+382.86+204.41C396.29+126.02+359.69+55.41+282.81+29.94C263.39+23.5067+245.12+19.9533+228+19.28C216.74+18.84+205.467+18.6067+194.18+18.58C138.98+18.4533+83.7433+18.44+28.47+18.54C28.1567+18.54+28+18.7+28+19.02L28+485C28+485.276+28.2239+485.5+28.5+485.5L123.75+485.5C124.083+485.5+124.25+485.333+124.25+485L124.25+321.53C124.25+321.123+124.453+320.92+124.86+320.92" opacity="1" fill="none" stroke-width="2" stroke-linejoin="miter" stroke-linecap="butt"/>
<path stroke="#808080" opacity="1" d="M1268.01+244.41C1267.97+244.499+1267.97+244.601+1268.01+244.69L1381.26+500.79C1381.32+500.917+1381.44+501+1381.58+501L1552.47+501C1552.59+501+1552.7+500.94+1552.76+500.841C1552.83+500.743+1552.84+500.618+1552.79+500.51L1354.09+51.29C1354.03+51.1634+1353.91+51.0818+1353.77+51.0818C1353.63+51.0818+1353.51+51.1634+1353.45+51.29L1268.01+244.41" stroke-linejoin="miter" fill="none" stroke-linecap="butt" stroke-width="2"/>
<path stroke-linecap="butt" stroke-linejoin="miter" stroke-width="2" stroke="#808080" d="M2001.96+138.5L1952.03+138.5C1951.84+138.5+1951.75+138.593+1951.75+138.78L1951.75+206C1951.75+206.333+1951.92+206.5+1952.25+206.5L2001.98+206.5C2002.29+206.5+2002.45+206.657+2002.45+206.97C2002.18+268.083+2002.2+329.197+2002.51+390.31C2002.56+401.837+2003.56+412.563+2005.49+422.49C2020+497.01+2098.92+500.55+2157.55+483.57C2157.85+483.49+2158+483.293+2158+482.98L2158.01+413.99C2158.01+413.657+2157.84+413.513+2157.51+413.56C2146.34+415.227+2135.11+415.783+2123.82+415.23C2099.37+414.04+2094.92+398.46+2094.94+377.5C2094.97+320.607+2095+263.933+2095.01+207.48C2095.01+206.827+2095.34+206.5+2096+206.5L2153.75+206.5C2154.09+206.5+2154.26+206.333+2154.26+206L2154.26+139C2154.26+138.667+2154.09+138.5+2153.75+138.5L2095.5+138.5C2095.17+138.5+2095.01+138.333+2095.01+138L2095+54.25C2095+53.4167+2094.58+53+2093.75+53L2002.83+53C2002.6+53+2002.41+53.1925+2002.41+53.43C2003.02+80.41+2002+102.46+2002.56+137.88C2002.57+138.293+2002.37+138.5+2001.96+138.5" opacity="1" fill="none"/>
<path stroke="#808080" opacity="1" stroke-width="2" stroke-linecap="butt" fill="none" stroke-linejoin="miter" d="M535.66+179.27L533.34+138.82C533.329+138.64+533.18+138.5+533+138.5L446.25+138.5C445.917+138.5+445.75+138.667+445.75+139L445.75+485C445.75+485.276+445.974+485.5+446.25+485.5L538.02+485.5C538.285+485.5+538.5+485.285+538.5+485.02C538.5+410.167+538.5+335.34+538.5+260.54C538.5+258.953+538.847+257.503+539.54+256.19C558.82+219.71+605.16+219.94+640.01+225.56C640.173+225.586+640.339+225.542+640.466+225.438C640.592+225.335+640.667+225.182+640.67+225.02L642.08+136.95C642.087+136.557+641.9+136.303+641.52+136.19C629.42+132.73+617.077+131.58+604.49+132.74C573.27+135.61+552.34+153.29+536.25+179.42C535.897+179.987+535.7+179.937+535.66+179.27"/>
<path fill="none" stroke-linejoin="miter" stroke-width="2" d="M664.64+260.07C657.04+296.08+657.73+338.38+666.81+374.05C681.25+430.81+723.87+475.21+781.8+487.47C836.94+499.14+899.44+488.94+939.98+447.34C961.527+425.227+975.603+399.277+982.21+369.49C990.317+332.977+990.35+295.593+982.31+257.34C970.23+199.82+930.04+153.62+872.53+138.57C840.31+130.14+806.57+129.85+774.38+138.5C715.1+154.44+677.06+201.17+664.64+260.07" stroke-linecap="butt" stroke="#808080" opacity="1"/>
<path stroke-width="2" stroke="#808080" d="M1703.17+172.21L1700.16+138.94C1700.13+138.647+1699.97+138.5+1699.68+138.5L1614.5+138.5C1614.22+138.5+1614+138.724+1614+139L1614+618C1614+618.66+1614.33+618.99+1615+618.99L1706.27+619.02C1706.56+619.02+1706.71+618.877+1706.72+618.59C1707.25+609.71+1706.77+598.45+1706.76+592.06C1706.67+550.253+1706.7+523.587+1706.83+512.06C1707.07+490.72+1706.51+473.42+1707.12+455.96C1707.14+455.513+1707.3+455.457+1707.6+455.79C1736.47+488.17+1779.83+497.71+1821.26+488.85C1870.26+478.38+1902.54+437.4+1916.16+390.98C1919.06+381.093+1920.77+374.767+1921.29+372C1936.24+292.19+1925.78+160.76+1826.08+136.37C1780.48+125.21+1734.69+135.28+1703.86+172.42C1703.46+172.907+1703.23+172.837+1703.17+172.21" opacity="1" stroke-linecap="butt" fill="none" stroke-linejoin="miter"/>
<path d="M2734.99+342.37C2734.98+342.34+2734.99+342.309+2735.01+342.286C2735.03+342.263+2735.06+342.249+2735.09+342.25L2955.71+342.25C2955.97+342.25+2956.1+342.12+2956.11+341.86C2956.94+290.7+2957+238.29+2928.5+194.76C2897.14+146.87+2845.79+128.85+2789.45+132.7C2701.28+138.73+2647.62+207.83+2642.09+292.27C2640.25+320.27+2640.96+348.8+2648.48+376.01C2665.25+436.75+2716.1+479.14+2777.74+489.08C2840.18+499.15+2909.13+483.07+2948.44+429.77C2948.54+429.634+2948.53+429.447+2948.42+429.32L2903.41+378.82C2903.29+378.684+2903.11+378.61+2902.93+378.62C2902.74+378.63+2902.57+378.721+2902.46+378.87C2886.39+400.89+2859.75+413.94+2833.03+416.73C2788.26+421.4+2747.68+399.45+2737.35+353.23C2736.54+349.637+2735.76+346.017+2734.99+342.37" stroke-linejoin="miter" stroke-width="2" stroke="#808080" fill="none" opacity="1" stroke-linecap="butt"/>
<path d="M3097+178.5L3094.22+138.97C3094.19+138.657+3094.02+138.5+3093.71+138.5L3007.5+138.5C3007.16+138.5+3006.99+138.67+3006.99+139.01L3007+484.88C3007+485.293+3007.21+485.5+3007.63+485.5L3099+485.5C3099.33+485.5+3099.5+485.333+3099.5+485L3099.5+241.26C3099.5+240.933+3099.59+240.63+3099.76+240.35C3109.41+224.95+3122.77+213.56+3140.6+209.47C3158.38+205.4+3184.92+206.63+3199.15+219.36C3211.48+230.4+3213.76+249.89+3213.76+265.25C3213.74+338.49+3213.74+411.74+3213.76+485C3213.76+485.333+3213.93+485.5+3214.26+485.5L3305.98+485.5C3306.32+485.5+3306.49+485.33+3306.49+484.99C3306.54+412.097+3306.5+339.203+3306.38+266.31C3306.3+218.3+3296.94+163.25+3247.63+141.57C3223.87+131.12+3193.83+129.99+3168.67+134.94C3139.51+140.667+3115.73+155.22+3097.33+178.6C3097.14+178.853+3097.03+178.82+3097+178.5" stroke-width="2" stroke-linejoin="miter" opacity="1" stroke="#808080" fill="none" stroke-linecap="butt"/>
<path stroke="#808080" stroke-linecap="butt" stroke-linejoin="miter" d="M1035.63+499.7C1035.19+500.703+1035.28+501.863+1035.88+502.781C1036.48+503.699+1037.5+504.252+1038.6+504.25L1325.88+504.25C1326.98+504.252+1328+503.699+1328.6+502.781C1329.2+501.863+1329.29+500.703+1328.85+499.7L1185.2+175.1C1184.68+173.931+1183.52+173.178+1182.24+173.178C1180.96+173.178+1179.8+173.931+1179.28+175.1L1035.63+499.7" stroke-width="2" fill="none" opacity="1"/>
<path d="M285.33+197.3C291.5+175.05+288.92+148.16+276.37+128.78C261.81+106.3+237.88+96.48+211.75+96.47C182.677+96.4633+153.67+96.4833+124.73+96.53C124.465+96.53+124.25+96.7449+124.25+97.01L124.25+242.45C124.25+242.881+124.599+243.23+125.03+243.23C152.43+243.03+179.813+242.94+207.18+242.96C216.26+242.967+222.913+242.697+227.14+242.15C254.11+238.66+277.64+225.03+285.33+197.3" stroke-linecap="butt" stroke-width="2" stroke-linejoin="miter" fill="none" opacity="1" stroke="#808080"/>
<path stroke="#808080" stroke-linecap="butt" stroke-linejoin="miter" fill="none" d="M752.77+296.4C751.1+325.38+751.99+360.2+767.38+386.07C781.97+410.58+807.71+420.36+835.3+416.28C868.33+411.41+886.21+384.43+891.7+353.69C896.213+328.463+896.65+302.733+893.01+276.5C888.62+244.88+868.86+212.27+834.25+207.98C815.01+205.59+796.16+209.07+781.44+221.85C760.56+239.96+754.28+270.31+752.77+296.4" opacity="1" stroke-width="2"/>
<path stroke-width="2" stroke-linejoin="miter" fill="none" stroke="#808080" opacity="1" stroke-linecap="butt" d="M1707.02+243.05C1706.89+288.36+1706.62+333.67+1706.93+379C1706.94+380.75+1706.62+382.03+1707.42+383.62C1716.53+401.83+1731.75+412.25+1751.44+415.75C1819.77+427.86+1832.76+365.05+1833.83+314.52C1834.78+269.64+1824.74+207.16+1765.8+207.5C1741.38+207.64+1720.16+216.57+1708.09+238.75C1707.38+240.05+1707.03+241.483+1707.02+243.05"/>
<path opacity="1" d="M2736.5+279.12L2864.5+279.15C2864.73+279.15+2864.85+279.02+2864.86+278.76C2865.91+251.22+2857.88+223.67+2830.99+212.36C2818.66+207.18+2802.13+205.96+2788.99+208.48C2754.97+215.03+2740.45+247.99+2736.14+278.71C2736.11+278.983+2736.23+279.12+2736.5+279.12" fill="none" stroke="#808080" stroke-linejoin="miter" stroke-width="2" stroke-linecap="butt"/>
</g>
<path d="M2484.99+310.99L2398.51+311.02C2398.17+311.02+2398+310.85+2398+310.51L2398+240.75C2398+240.474+2398.22+240.25+2398.5+240.25L2581.25+240.25C2581.58+240.25+2581.75+240.417+2581.75+240.75L2581.75+426C2581.75+426.32+2581.64+426.6+2581.43+426.84C2558.13+453.35+2527.09+469.89+2493.43+479.46C2457.72+489.62+2421.49+493.543+2384.75+491.23C2340.51+488.44+2294.81+471.56+2262.64+439.46C2221.32+398.24+2203.04+339.96+2201.2+283.18C2200.61+265.093+2200.55+246.2+2201.02+226.5C2203.16+134.98+2243.17+44.26+2339.7+19.2C2375.88+9.81+2415.12+10.51+2451.75+17.49C2475.72+22.0633+2497.56+31.2267+2517.28+44.98C2558.08+73.44+2575.4+119.61+2581.59+166.62C2581.63+166.88+2581.52+167.01+2581.25+167.01L2488.51+166.99C2488.08+166.99+2487.84+166.78+2487.78+166.36C2482.3+128.81+2463.35+99.69+2423.99+92.22C2403.14+88.26+2381.07+88.78+2361.53+96.67C2310.13+117.44+2299.49+181.44+2298.66+229.44C2298.09+262.8+2297.81+295.89+2305.05+328.48C2315.18+374.11+2344.19+408.89+2393.01+413.72C2411.84+415.58+2430.14+414.56+2447.92+410.66C2461.66+407.647+2474.07+401.507+2485.15+392.24C2485.38+392.04+2485.5+391.787+2485.5+391.48L2485.5+311.5C2485.5+311.16+2485.33+310.99+2484.99+310.99Z" opacity="1" fill="#000000"/>
<path d="M124.25+321.53L124.25+485C124.25+485.333+124.083+485.5+123.75+485.5L28.5+485.5C28.2239+485.5+28+485.276+28+485L28+19.02C28+18.7+28.1567+18.54+28.47+18.54C83.7433+18.44+138.98+18.4533+194.18+18.58C205.467+18.6067+216.74+18.84+228+19.28C245.12+19.9533+263.39+23.5067+282.81+29.94C359.69+55.41+396.29+126.02+382.86+204.41C371.12+272.93+311.2+311.15+246.18+318.63C234.473+319.977+221.727+320.737+207.94+320.91C193.293+321.097+165.6+321.1+124.86+320.92C124.453+320.92+124.25+321.123+124.25+321.53ZM285.33+197.3C291.5+175.05+288.92+148.16+276.37+128.78C261.81+106.3+237.88+96.48+211.75+96.47C182.677+96.4633+153.67+96.4833+124.73+96.53C124.465+96.53+124.25+96.7449+124.25+97.01L124.25+242.45C124.25+242.881+124.599+243.23+125.03+243.23C152.43+243.03+179.813+242.94+207.18+242.96C216.26+242.967+222.913+242.697+227.14+242.15C254.11+238.66+277.64+225.03+285.33+197.3Z" opacity="1" fill="#000000"/>
<path d="M1268.01+244.41L1353.45+51.29C1353.51+51.1634+1353.63+51.0818+1353.77+51.0818C1353.91+51.0818+1354.03+51.1634+1354.09+51.29L1552.79+500.51C1552.84+500.618+1552.83+500.743+1552.76+500.841C1552.7+500.94+1552.59+501+1552.47+501L1381.58+501C1381.44+501+1381.32+500.917+1381.26+500.79L1268.01+244.69C1267.97+244.601+1267.97+244.499+1268.01+244.41Z" opacity="1" fill="#000000"/>
<path opacity="1" fill="#000000" d="M2002.56+137.88C2002+102.46+2003.02+80.41+2002.41+53.43C2002.41+53.1925+2002.6+53+2002.83+53L2093.75+53C2094.58+53+2095+53.4167+2095+54.25L2095.01+138C2095.01+138.333+2095.17+138.5+2095.5+138.5L2153.75+138.5C2154.09+138.5+2154.26+138.667+2154.26+139L2154.26+206C2154.26+206.333+2154.09+206.5+2153.75+206.5L2096+206.5C2095.34+206.5+2095.01+206.827+2095.01+207.48C2095+263.933+2094.97+320.607+2094.94+377.5C2094.92+398.46+2099.37+414.04+2123.82+415.23C2135.11+415.783+2146.34+415.227+2157.51+413.56C2157.84+413.513+2158.01+413.657+2158.01+413.99L2158+482.98C2158+483.293+2157.85+483.49+2157.55+483.57C2098.92+500.55+2020+497.01+2005.49+422.49C2003.56+412.563+2002.56+401.837+2002.51+390.31C2002.2+329.197+2002.18+268.083+2002.45+206.97C2002.45+206.657+2002.29+206.5+2001.98+206.5L1952.25+206.5C1951.92+206.5+1951.75+206.333+1951.75+206L1951.75+138.78C1951.75+138.593+1951.84+138.5+1952.03+138.5L2001.96+138.5C2002.37+138.5+2002.57+138.293+2002.56+137.88Z"/>
<path d="M536.25+179.42C552.34+153.29+573.27+135.61+604.49+132.74C617.077+131.58+629.42+132.73+641.52+136.19C641.9+136.303+642.087+136.557+642.08+136.95L640.67+225.02C640.667+225.182+640.592+225.335+640.466+225.438C640.339+225.542+640.173+225.586+640.01+225.56C605.16+219.94+558.82+219.71+539.54+256.19C538.847+257.503+538.5+258.953+538.5+260.54C538.5+335.34+538.5+410.167+538.5+485.02C538.5+485.285+538.285+485.5+538.02+485.5L446.25+485.5C445.974+485.5+445.75+485.276+445.75+485L445.75+139C445.75+138.667+445.917+138.5+446.25+138.5L533+138.5C533.18+138.5+533.329+138.64+533.34+138.82L535.66+179.27C535.7+179.937+535.897+179.987+536.25+179.42Z" fill="#000000" opacity="1"/>
<path opacity="1" d="M666.81+374.05C657.73+338.38+657.04+296.08+664.64+260.07C677.06+201.17+715.1+154.44+774.38+138.5C806.57+129.85+840.31+130.14+872.53+138.57C930.04+153.62+970.23+199.82+982.31+257.34C990.35+295.593+990.317+332.977+982.21+369.49C975.603+399.277+961.527+425.227+939.98+447.34C899.44+488.94+836.94+499.14+781.8+487.47C723.87+475.21+681.25+430.81+666.81+374.05ZM752.77+296.4C751.1+325.38+751.99+360.2+767.38+386.07C781.97+410.58+807.71+420.36+835.3+416.28C868.33+411.41+886.21+384.43+891.7+353.69C896.213+328.463+896.65+302.733+893.01+276.5C888.62+244.88+868.86+212.27+834.25+207.98C815.01+205.59+796.16+209.07+781.44+221.85C760.56+239.96+754.28+270.31+752.77+296.4Z" fill="#000000"/>
<path opacity="1" d="M1703.86+172.42C1734.69+135.28+1780.48+125.21+1826.08+136.37C1925.78+160.76+1936.24+292.19+1921.29+372C1920.77+374.767+1919.06+381.093+1916.16+390.98C1902.54+437.4+1870.26+478.38+1821.26+488.85C1779.83+497.71+1736.47+488.17+1707.6+455.79C1707.3+455.457+1707.14+455.513+1707.12+455.96C1706.51+473.42+1707.07+490.72+1706.83+512.06C1706.7+523.587+1706.67+550.253+1706.76+592.06C1706.77+598.45+1707.25+609.71+1706.72+618.59C1706.71+618.877+1706.56+619.02+1706.27+619.02L1615+618.99C1614.33+618.99+1614+618.66+1614+618L1614+139C1614+138.724+1614.22+138.5+1614.5+138.5L1699.68+138.5C1699.97+138.5+1700.13+138.647+1700.16+138.94L1703.17+172.21C1703.23+172.837+1703.46+172.907+1703.86+172.42ZM1707.02+243.05C1706.89+288.36+1706.62+333.67+1706.93+379C1706.94+380.75+1706.62+382.03+1707.42+383.62C1716.53+401.83+1731.75+412.25+1751.44+415.75C1819.77+427.86+1832.76+365.05+1833.83+314.52C1834.78+269.64+1824.74+207.16+1765.8+207.5C1741.38+207.64+1720.16+216.57+1708.09+238.75C1707.38+240.05+1707.03+241.483+1707.02+243.05Z" fill="#000000"/>
<path fill="#000000" d="M2734.99+342.37C2735.76+346.017+2736.54+349.637+2737.35+353.23C2747.68+399.45+2788.26+421.4+2833.03+416.73C2859.75+413.94+2886.39+400.89+2902.46+378.87C2902.57+378.721+2902.74+378.63+2902.93+378.62C2903.11+378.61+2903.29+378.684+2903.41+378.82L2948.42+429.32C2948.53+429.447+2948.54+429.634+2948.44+429.77C2909.13+483.07+2840.18+499.15+2777.74+489.08C2716.1+479.14+2665.25+436.75+2648.48+376.01C2640.96+348.8+2640.25+320.27+2642.09+292.27C2647.62+207.83+2701.28+138.73+2789.45+132.7C2845.79+128.85+2897.14+146.87+2928.5+194.76C2957+238.29+2956.94+290.7+2956.11+341.86C2956.1+342.12+2955.97+342.25+2955.71+342.25L2735.09+342.25C2735.06+342.249+2735.03+342.263+2735.01+342.286C2734.99+342.309+2734.98+342.34+2734.99+342.37ZM2736.5+279.12L2864.5+279.15C2864.73+279.15+2864.85+279.02+2864.86+278.76C2865.91+251.22+2857.88+223.67+2830.99+212.36C2818.66+207.18+2802.13+205.96+2788.99+208.48C2754.97+215.03+2740.45+247.99+2736.14+278.71C2736.11+278.983+2736.23+279.12+2736.5+279.12Z" opacity="1"/>
<path opacity="1" fill="#000000" d="M3097.33+178.6C3115.73+155.22+3139.51+140.667+3168.67+134.94C3193.83+129.99+3223.87+131.12+3247.63+141.57C3296.94+163.25+3306.3+218.3+3306.38+266.31C3306.5+339.203+3306.54+412.097+3306.49+484.99C3306.49+485.33+3306.32+485.5+3305.98+485.5L3214.26+485.5C3213.93+485.5+3213.76+485.333+3213.76+485C3213.74+411.74+3213.74+338.49+3213.76+265.25C3213.76+249.89+3211.48+230.4+3199.15+219.36C3184.92+206.63+3158.38+205.4+3140.6+209.47C3122.77+213.56+3109.41+224.95+3099.76+240.35C3099.59+240.63+3099.5+240.933+3099.5+241.26L3099.5+485C3099.5+485.333+3099.33+485.5+3099+485.5L3007.63+485.5C3007.21+485.5+3007+485.293+3007+484.88L3006.99+139.01C3006.99+138.67+3007.16+138.5+3007.5+138.5L3093.71+138.5C3094.02+138.5+3094.19+138.657+3094.22+138.97L3097+178.5C3097.03+178.82+3097.14+178.853+3097.33+178.6Z"/>
<path d="M1035.63+499.7L1179.28+175.1C1179.8+173.931+1180.96+173.178+1182.24+173.178C1183.52+173.178+1184.68+173.931+1185.2+175.1L1328.85+499.7C1329.29+500.703+1329.2+501.863+1328.6+502.781C1328+503.699+1326.98+504.252+1325.88+504.25L1038.6+504.25C1037.5+504.252+1036.48+503.699+1035.88+502.781C1035.28+501.863+1035.19+500.703+1035.63+499.7Z" opacity="1" fill="#000000"/>
</g>
</svg>
