<?xml version="1.0" encoding="UTF-8" standalone="no"?> <!-- Created with Vectornator for iOS (http://vectornator.io/) --><!DOCTYPE svg PUBLIC "-//W3C//DTD SVG 1.1//EN" "http://www.w3.org/Graphics/SVG/1.1/DTD/svg11.dtd">
<svg xmlns:xlink="http://www.w3.org/1999/xlink" xml:space="preserve" version="1.1" style="fill-rule:nonzero;clip-rule:evenodd;stroke-linecap:round;stroke-linejoin:round;" width="100%" viewBox="0 0 2308 360" xmlns:vectornator="http://vectornator.io" height="100%" xmlns="http://www.w3.org/2000/svg">
<metadata>
<vectornator:setting value="true" key="WDGuidesVisible"/>
<vectornator:setting value="false" key="WDDynamicGuides"/>
<vectornator:setting key="IsTimeLapseWatermarkDisabled" value="false"/>
<vectornator:setting value="false" key="WDSnapToEdges"/>
<vectornator:setting value="false" key="WDSnapToGrid"/>
<vectornator:setting key="UndoHistoryDisabled" value="true"/>
<vectornator:setting value="true" key="WDRulersVisible"/>
<vectornator:setting key="WDCMYKEnabledKey" value="false"/>
<vectornator:setting value="true" key="VNSnapToGuides"/>
<vectornator:setting value="false" key="WDSnapToPoints"/>
<vectornator:setting value="true" key="VNDimensionsVisible"/>
<vectornator:setting key="WDDisplayWhiteBackground" value="false"/>
<vectornator:setting key="WDIsolateActiveLayer" value="false"/>
<vectornator:setting key="WDUnits" value="Points"/>
<vectornator:setting key="WDOutlineMode" value="false"/>
</metadata>
<defs>
<path id="Mask" d="M0+0L2308+0L2308+360L0+360L0+0Z"/>
</defs>
<g vectornator:layerName="Untitled" id="Untitled">
<g opacity="1" vectornator:mask="#Mask">
<clipPath id="ClipPath">
<use xlink:href="#Mask" fill="none" overflow="visible"/>
</clipPath>
<g clip-path="url(#ClipPath)">
<g opacity="1">
<path d="M1772.08+158.71L1771.76+228C1771.76+228.173+1771.68+228.3+1771.52+228.38C1728.01+249.24+1670.73+237.47+1655.36+186.56C1651+172.113+1650.52+157.403+1653.92+142.43C1661.71+108.11+1689.94+87.65+1724.27+85.95C1750.71+84.65+1772.89+93.4067+1790.81+112.22C1791.08+112.507+1791.37+112.517+1791.66+112.25L1826.34+80.26C1826.59+80.0267+1826.6+79.78+1826.37+79.52C1807.46+59+1784.17+46.3133+1756.5+41.46C1714.48+34.09+1668.99+41.92+1636.26+70.79C1612.39+91.83+1598.86+120.08+1596.35+151.92C1591.29+216.14+1634.27+272.16+1698.01+282.76C1739.69+289.68+1786.79+280.88+1821.78+255.2C1822.09+254.973+1822.25+254.667+1822.25+254.28L1822.25+158.75C1822.25+158.417+1822.08+158.25+1821.75+158.25L1772.54+158.25C1772.29+158.25+1772.08+158.456+1772.08+158.71" stroke-width="2" stroke="#808080" stroke-linejoin="miter" stroke-linecap="butt" fill="none" opacity="1"/>
<path opacity="1" stroke-linejoin="miter" stroke-linecap="butt" fill="none" stroke="#808080" stroke-width="2" d="M96+216.29C96+215.69+96.2967+215.397+96.89+215.41C113.217+215.65+129.42+215.597+145.5+215.25C160.53+214.92+173.93+213.56+186.99+209.5C219.2+199.48+241.95+176.58+246.56+142.67C250.72+112.08+241.44+82.69+216.88+63.82C197.08+48.6+170.62+43.02+145.99+42.99C111.19+42.9567+76.3567+42.9667+41.49+43.02C41.1633+43.02+41+43.1833+41+43.51L41+280.52C41+280.867+41.1733+281.04+41.52+281.04L95.38+280.99C95.7933+280.99+96+280.783+96+280.37L96+216.29"/>
<path stroke-width="2" stroke="#808080" stroke-linecap="butt" d="M1301.27+143.43C1301.27+143.088+1301.55+142.81+1301.89+142.81L1346.42+142.85C1346.81+142.85+1347+142.657+1347+142.27L1347+102.71C1347+102.397+1346.84+102.24+1346.53+102.24L1302+102.26C1301.59+102.26+1301.25+101.92+1301.25+101.5L1301.25+58C1301.25+57.6667+1301.08+57.5+1300.75+57.5L1248.75+57.5C1248.42+57.5+1248.25+57.6667+1248.25+58L1248.25+101.63C1248.25+102.057+1248.04+102.27+1247.62+102.27L1220.52+102.22C1220.17+102.22+1220+102.39+1220+102.73L1220+142.26C1220+142.607+1220.17+142.78+1220.51+142.78L1247.74+142.74C1248.03+142.74+1248.27+142.977+1248.27+143.27C1248.21+168.317+1248.24+193.373+1248.35+218.44C1248.39+227.78+1249.6+236.303+1251.97+244.01C1263.4+281.18+1306.02+288.79+1339.08+281.08C1346.87+279.267+1353.66+276.423+1359.46+272.55C1359.75+272.35+1359.84+272.083+1359.71+271.75L1345.88+235.58C1345.81+235.406+1345.67+235.272+1345.49+235.217C1345.31+235.163+1345.12+235.193+1344.97+235.3C1329.36+246.18+1303.76+244.5+1301.64+220.81C1301.41+218.217+1301.29+215.613+1301.28+213C1301.22+189.74+1301.22+166.55+1301.27+143.43" fill="none" stroke-linejoin="miter" opacity="1"/>
<path stroke-linecap="butt" stroke="#808080" opacity="1" d="M334.16+121.9C334.099+121.976+333.998+122.006+333.906+121.975C333.814+121.943+333.751+121.857+333.75+121.76L333.75+98.5C333.75+98.2239+333.526+98+333.25+98L283.5+98C283.167+98+283+98.1667+283+98.5L283+280.66C283+280.927+283.137+281.06+283.41+281.06L335.55+280.98C335.91+280.98+336.09+280.797+336.09+280.43C335.85+233.983+335.9+203.423+336.24+188.75C336.36+183.45+337.487+177.823+339.62+171.87C348.28+147.72+372.85+141.67+395.92+144.26C396.133+144.283+396.345+144.215+396.503+144.074C396.662+143.932+396.752+143.731+396.75+143.52L396.75+96.01C396.75+95.69+396.593+95.53+396.28+95.53C372.87+95.05+348.74+102.59+334.16+121.9" stroke-width="2" fill="none" stroke-linejoin="miter"/>
<path fill="none" stroke-linejoin="miter" opacity="1" stroke-width="2" stroke="#808080" d="M413.45+195.74C415.23+237.02+445.4+270.4+484.93+280.2C540.63+294.01+602.94+266.74+612.86+206.01C621.12+155.42+591.61+109.55+540.68+98.35C474.3+83.75+410.32+123.41+413.45+195.74" stroke-linecap="butt"/>
<path fill="none" opacity="1" stroke-width="2" stroke-linecap="butt" d="M1057.98+118.72C1057.9+118.802+1057.78+118.827+1057.67+118.783C1057.57+118.738+1057.5+118.634+1057.5+118.52L1057.5+98.5C1057.5+98.1667+1057.33+98+1057+98L1007.78+98C1007.26+98+1007+98.26+1007+98.78L1007+346.75C1007+347.083+1007.17+347.25+1007.5+347.25L1059.5+347.25C1059.83+347.25+1060+347.083+1060+346.75L1060+261.82C1060+261.762+1060.03+261.709+1060.09+261.687C1060.14+261.665+1060.21+261.678+1060.25+261.72C1072.09+274.1+1086.59+281.227+1103.76+283.1C1136.28+286.65+1167.09+275.55+1187.07+250.03C1204.68+227.55+1209.17+197.6+1204.66+170.05C1198.5+132.5+1169.52+102.45+1132+96.8C1114.39+94.15+1097.42+95.22+1081.14+102C1070.79+106.31+1065.27+111.71+1057.98+118.72" stroke="#808080" stroke-linejoin="miter"/>
<path fill="none" stroke-width="2" stroke-linecap="butt" stroke="#808080" d="M1571.49+185.05C1568.33+116.74+1502.84+83.52+1441.15+99.2C1410.26+107.05+1383.88+129.98+1374.8+161.01C1357.01+221.8+1397.28+277.77+1459.27+283.19C1467.55+283.91+1475.81+283.863+1484.04+283.05C1535.64+277.92+1573.94+237.99+1571.49+185.05" opacity="1" stroke-linejoin="miter"/>
<path stroke-linejoin="miter" fill="none" stroke-width="2" stroke="#808080" opacity="1" d="M1909.65+204.96C1909.62+204.849+1909.65+204.732+1909.72+204.642C1909.79+204.552+1909.9+204.5+1910.01+204.5L2047.49+204.5C2047.81+204.5+2047.99+204.34+2048.03+204.02C2054.62+149.54+2023.62+102.6+1967.5+96.16C1902.21+88.68+1848.71+135.42+1857.02+202.75C1859.72+224.7+1870.26+244.77+1887.14+259C1914.12+281.74+1950.94+287.58+1985.05+281.59C2004.92+278.103+2021.81+269.143+2035.74+254.71C2035.94+254.51+2035.95+254.183+2035.75+253.97L2008.21+224.03C2007.94+223.73+2007.65+223.72+2007.36+224C1997.61+233.3+1985.94+238.837+1972.34+240.61C1944.84+244.19+1917.18+234.49+1909.65+204.96" stroke-linecap="butt"/>
<path stroke-linejoin="miter" stroke-linecap="butt" stroke-width="2" d="M2135.63+119.42C2135.57+119.487+2135.47+119.507+2135.38+119.472C2135.3+119.436+2135.25+119.352+2135.25+119.26L2135.25+98.5C2135.25+98.2239+2135.03+98+2134.75+98L2085+98C2084.67+98+2084.5+98.1667+2084.5+98.5L2084.5+280C2084.5+280.667+2084.83+281+2085.5+281L2137.04+281.01C2137.34+281.01+2137.49+280.857+2137.49+280.55C2137.48+250.303+2137.52+220.06+2137.62+189.82C2137.7+167.23+2146.68+147.38+2170.66+142.35C2182.74+139.81+2197.03+141.42+2206.33+149.56C2216.68+158.63+2218.64+173.2+2218.67+186.32C2218.74+217.687+2218.76+249.077+2218.75+280.49C2218.75+280.823+2218.92+280.99+2219.25+280.99L2271.23+281.01C2271.48+281.01+2271.61+280.883+2271.61+280.63C2271.95+228.423+2271.93+191.463+2271.54+169.75C2271.32+157.53+2267.98+142.63+2262.25+131.78C2252.45+113.22+2236.61+101.767+2214.72+97.42C2186.01+91.72+2155.97+98.13+2135.63+119.42" opacity="1" fill="none" stroke="#808080"/>
<path stroke-linejoin="miter" d="M637.93+275.74C637.87+275.844+637.869+275.973+637.929+276.078C637.989+276.183+638.099+276.248+638.22+276.25L862.4+276.25C862.529+276.252+862.648+276.181+862.707+276.067C862.766+275.952+862.756+275.814+862.68+275.71L738.48+104.66C738.412+104.567+738.302+104.514+738.187+104.52C738.072+104.526+737.967+104.59+737.91+104.69L637.93+275.74" opacity="1" stroke="#808080" fill="none" stroke-width="2" stroke-linecap="butt"/>
<path stroke-linejoin="miter" d="M968.88+276.25C968.998+276.249+969.107+276.185+969.165+276.081C969.223+275.978+969.221+275.851+969.16+275.75L884.4+138.81C884.35+138.729+884.267+138.674+884.173+138.659C884.079+138.644+883.983+138.669+883.91+138.73L814.79+197.66C814.657+197.773+814.635+197.97+814.74+198.11L871.42+276.11C871.482+276.198+871.583+276.25+871.69+276.25L968.88+276.25" fill="none" stroke="#808080" stroke-linecap="butt" opacity="1" stroke-width="2"/>
<path stroke="#808080" d="M145.75+87.96C129.457+87.6267+113.087+87.5933+96.64+87.86C96.22+87.8667+96.01+88.08+96.01+88.5L96+169.01C96+170.003+96.4967+170.5+97.49+170.5C113.23+170.567+129.337+170.467+145.81+170.2C167.59+169.84+186.94+160.98+190.85+137.48C196.05+106.23+175.83+88.58+145.75+87.96" stroke-width="2" fill="none" stroke-linejoin="miter" opacity="1" stroke-linecap="butt"/>
<path stroke-width="2" opacity="1" fill="none" stroke-linecap="butt" stroke="#808080" d="M521.03+139.41C450.59+130.58+448.7+243.62+516.4+240.19C573.82+237.27+575.57+146.25+521.03+139.41" stroke-linejoin="miter"/>
<path stroke="#808080" stroke-linecap="butt" d="M1111.99+239.94C1167.81+233.25+1165.97+140.97+1108+138.89C1040.59+136.47+1044.15+248.07+1111.99+239.94" stroke-width="2" opacity="1" fill="none" stroke-linejoin="miter"/>
<path opacity="1" stroke="#808080" stroke-linejoin="miter" stroke-width="2" d="M1425.33+177.42C1419.72+209.29+1436.97+240.89+1472.44+240.28C1507.57+239.66+1523.64+205.65+1516.32+174.7C1504.61+125.19+1434.04+127.85+1425.33+177.42" fill="none" stroke-linecap="butt"/>
<path stroke-linejoin="miter" stroke-linecap="butt" opacity="1" stroke-width="2" fill="none" d="M1909.32+173.54L1997.75+173.76C1998.83+173.76+1999.24+173.19+1998.97+172.05C1993.18+147.56+1975.2+134.25+1950.66+135.58C1928.72+136.77+1913.06+151.19+1908.94+173.08C1908.92+173.193+1908.95+173.31+1909.02+173.398C1909.1+173.487+1909.2+173.539+1909.32+173.54" stroke="#808080"/>
</g>
</g>
</g>
<path opacity="1" fill="#000000" d="M1771.76+228L1772.08+158.71C1772.08+158.456+1772.29+158.25+1772.54+158.25L1821.75+158.25C1822.08+158.25+1822.25+158.417+1822.25+158.75L1822.25+254.28C1822.25+254.667+1822.09+254.973+1821.78+255.2C1786.79+280.88+1739.69+289.68+1698.01+282.76C1634.27+272.16+1591.29+216.14+1596.35+151.92C1598.86+120.08+1612.39+91.83+1636.26+70.79C1668.99+41.92+1714.48+34.09+1756.5+41.46C1784.17+46.3133+1807.46+59+1826.37+79.52C1826.6+79.78+1826.59+80.0267+1826.34+80.26L1791.66+112.25C1791.37+112.517+1791.08+112.507+1790.81+112.22C1772.89+93.4067+1750.71+84.65+1724.27+85.95C1689.94+87.65+1661.71+108.11+1653.92+142.43C1650.52+157.403+1651+172.113+1655.36+186.56C1670.73+237.47+1728.01+249.24+1771.52+228.38C1771.68+228.3+1771.76+228.173+1771.76+228Z"/>
<path fill="#000000" opacity="1" d="M96+216.29L96+280.37C96+280.783+95.7933+280.99+95.38+280.99L41.52+281.04C41.1733+281.04+41+280.867+41+280.52L41+43.51C41+43.1833+41.1633+43.02+41.49+43.02C76.3567+42.9667+111.19+42.9567+145.99+42.99C170.62+43.02+197.08+48.6+216.88+63.82C241.44+82.69+250.72+112.08+246.56+142.67C241.95+176.58+219.2+199.48+186.99+209.5C173.93+213.56+160.53+214.92+145.5+215.25C129.42+215.597+113.217+215.65+96.89+215.41C96.2967+215.397+96+215.69+96+216.29ZM145.75+87.96C129.457+87.6267+113.087+87.5933+96.64+87.86C96.22+87.8667+96.01+88.08+96.01+88.5L96+169.01C96+170.003+96.4967+170.5+97.49+170.5C113.23+170.567+129.337+170.467+145.81+170.2C167.59+169.84+186.94+160.98+190.85+137.48C196.05+106.23+175.83+88.58+145.75+87.96Z"/>
<path d="M1301.27+143.43C1301.22+166.55+1301.22+189.74+1301.28+213C1301.29+215.613+1301.41+218.217+1301.64+220.81C1303.76+244.5+1329.36+246.18+1344.97+235.3C1345.12+235.193+1345.31+235.163+1345.49+235.217C1345.67+235.272+1345.81+235.406+1345.88+235.58L1359.71+271.75C1359.84+272.083+1359.75+272.35+1359.46+272.55C1353.66+276.423+1346.87+279.267+1339.08+281.08C1306.02+288.79+1263.4+281.18+1251.97+244.01C1249.6+236.303+1248.39+227.78+1248.35+218.44C1248.24+193.373+1248.21+168.317+1248.27+143.27C1248.27+142.977+1248.03+142.74+1247.74+142.74L1220.51+142.78C1220.17+142.78+1220+142.607+1220+142.26L1220+102.73C1220+102.39+1220.17+102.22+1220.52+102.22L1247.62+102.27C1248.04+102.27+1248.25+102.057+1248.25+101.63L1248.25+58C1248.25+57.6667+1248.42+57.5+1248.75+57.5L1300.75+57.5C1301.08+57.5+1301.25+57.6667+1301.25+58L1301.25+101.5C1301.25+101.92+1301.59+102.26+1302+102.26L1346.53+102.24C1346.84+102.24+1347+102.397+1347+102.71L1347+142.27C1347+142.657+1346.81+142.85+1346.42+142.85L1301.89+142.81C1301.55+142.81+1301.27+143.088+1301.27+143.43Z" opacity="1" fill="#000000"/>
<path fill="#000000" d="M334.16+121.9C348.74+102.59+372.87+95.05+396.28+95.53C396.593+95.53+396.75+95.69+396.75+96.01L396.75+143.52C396.752+143.731+396.662+143.932+396.503+144.074C396.345+144.215+396.133+144.283+395.92+144.26C372.85+141.67+348.28+147.72+339.62+171.87C337.487+177.823+336.36+183.45+336.24+188.75C335.9+203.423+335.85+233.983+336.09+280.43C336.09+280.797+335.91+280.98+335.55+280.98L283.41+281.06C283.137+281.06+283+280.927+283+280.66L283+98.5C283+98.1667+283.167+98+283.5+98L333.25+98C333.526+98+333.75+98.2239+333.75+98.5L333.75+121.76C333.751+121.857+333.814+121.943+333.906+121.975C333.998+122.006+334.099+121.976+334.16+121.9Z" opacity="1"/>
<path opacity="1" fill="#000000" d="M413.45+195.74C410.32+123.41+474.3+83.75+540.68+98.35C591.61+109.55+621.12+155.42+612.86+206.01C602.94+266.74+540.63+294.01+484.93+280.2C445.4+270.4+415.23+237.02+413.45+195.74ZM521.03+139.41C450.59+130.58+448.7+243.62+516.4+240.19C573.82+237.27+575.57+146.25+521.03+139.41Z"/>
<path d="M1057.98+118.72C1065.27+111.71+1070.79+106.31+1081.14+102C1097.42+95.22+1114.39+94.15+1132+96.8C1169.52+102.45+1198.5+132.5+1204.66+170.05C1209.17+197.6+1204.68+227.55+1187.07+250.03C1167.09+275.55+1136.28+286.65+1103.76+283.1C1086.59+281.227+1072.09+274.1+1060.25+261.72C1060.21+261.678+1060.14+261.665+1060.09+261.687C1060.03+261.709+1060+261.762+1060+261.82L1060+346.75C1060+347.083+1059.83+347.25+1059.5+347.25L1007.5+347.25C1007.17+347.25+1007+347.083+1007+346.75L1007+98.78C1007+98.26+1007.26+98+1007.78+98L1057+98C1057.33+98+1057.5+98.1667+1057.5+98.5L1057.5+118.52C1057.5+118.634+1057.57+118.738+1057.67+118.783C1057.78+118.827+1057.9+118.802+1057.98+118.72ZM1111.99+239.94C1167.81+233.25+1165.97+140.97+1108+138.89C1040.59+136.47+1044.15+248.07+1111.99+239.94Z" fill="#000000" opacity="1"/>
<path fill="#000000" d="M1441.15+99.2C1502.84+83.52+1568.33+116.74+1571.49+185.05C1573.94+237.99+1535.64+277.92+1484.04+283.05C1475.81+283.863+1467.55+283.91+1459.27+283.19C1397.28+277.77+1357.01+221.8+1374.8+161.01C1383.88+129.98+1410.26+107.05+1441.15+99.2ZM1425.33+177.42C1419.72+209.29+1436.97+240.89+1472.44+240.28C1507.57+239.66+1523.64+205.65+1516.32+174.7C1504.61+125.19+1434.04+127.85+1425.33+177.42Z" opacity="1"/>
<path fill="#000000" d="M1909.65+204.96C1917.18+234.49+1944.84+244.19+1972.34+240.61C1985.94+238.837+1997.61+233.3+2007.36+224C2007.65+223.72+2007.94+223.73+2008.21+224.03L2035.75+253.97C2035.95+254.183+2035.94+254.51+2035.74+254.71C2021.81+269.143+2004.92+278.103+1985.05+281.59C1950.94+287.58+1914.12+281.74+1887.14+259C1870.26+244.77+1859.72+224.7+1857.02+202.75C1848.71+135.42+1902.21+88.68+1967.5+96.16C2023.62+102.6+2054.62+149.54+2048.03+204.02C2047.99+204.34+2047.81+204.5+2047.49+204.5L1910.01+204.5C1909.9+204.5+1909.79+204.552+1909.72+204.642C1909.65+204.732+1909.62+204.849+1909.65+204.96ZM1909.32+173.54L1997.75+173.76C1998.83+173.76+1999.24+173.19+1998.97+172.05C1993.18+147.56+1975.2+134.25+1950.66+135.58C1928.72+136.77+1913.06+151.19+1908.94+173.08C1908.92+173.193+1908.95+173.31+1909.02+173.398C1909.1+173.487+1909.2+173.539+1909.32+173.54Z" opacity="1"/>
<path fill="#000000" d="M2135.63+119.42C2155.97+98.13+2186.01+91.72+2214.72+97.42C2236.61+101.767+2252.45+113.22+2262.25+131.78C2267.98+142.63+2271.32+157.53+2271.54+169.75C2271.93+191.463+2271.95+228.423+2271.61+280.63C2271.61+280.883+2271.48+281.01+2271.23+281.01L2219.25+280.99C2218.92+280.99+2218.75+280.823+2218.75+280.49C2218.76+249.077+2218.74+217.687+2218.67+186.32C2218.64+173.2+2216.68+158.63+2206.33+149.56C2197.03+141.42+2182.74+139.81+2170.66+142.35C2146.68+147.38+2137.7+167.23+2137.62+189.82C2137.52+220.06+2137.48+250.303+2137.49+280.55C2137.49+280.857+2137.34+281.01+2137.04+281.01L2085.5+281C2084.83+281+2084.5+280.667+2084.5+280L2084.5+98.5C2084.5+98.1667+2084.67+98+2085+98L2134.75+98C2135.03+98+2135.25+98.2239+2135.25+98.5L2135.25+119.26C2135.25+119.352+2135.3+119.436+2135.38+119.472C2135.47+119.507+2135.57+119.487+2135.63+119.42Z" opacity="1"/>
<path d="M637.93+275.74L737.91+104.69C737.967+104.59+738.072+104.526+738.187+104.52C738.302+104.514+738.412+104.567+738.48+104.66L862.68+275.71C862.756+275.814+862.766+275.952+862.707+276.067C862.648+276.181+862.529+276.252+862.4+276.25L638.22+276.25C638.099+276.248+637.989+276.183+637.929+276.078C637.869+275.973+637.87+275.844+637.93+275.74Z" opacity="1" fill="#000000"/>
<path d="M968.88+276.25L871.69+276.25C871.583+276.25+871.482+276.198+871.42+276.11L814.74+198.11C814.635+197.97+814.657+197.773+814.79+197.66L883.91+138.73C883.983+138.669+884.079+138.644+884.173+138.659C884.267+138.674+884.35+138.729+884.4+138.81L969.16+275.75C969.221+275.851+969.223+275.978+969.165+276.081C969.107+276.185+968.998+276.249+968.88+276.25Z" opacity="1" fill="#000000"/>
</g>
</svg>
